<svg id="boleto_preto" xmlns="http://www.w3.org/2000/svg" width="26.474" height="18" viewBox="0 0 26.474 18">
  <path id="Caminho_82" data-name="Caminho 82" d="M139.642,183h-22.81A1.834,1.834,0,0,1,115,181.168V166.832A1.834,1.834,0,0,1,116.832,165h22.81a1.834,1.834,0,0,1,1.832,1.832v14.335A1.834,1.834,0,0,1,139.642,183Zm-22.81-16.949a.782.782,0,0,0-.781.781v14.335a.782.782,0,0,0,.781.781h22.81a.782.782,0,0,0,.781-.781V166.832a.782.782,0,0,0-.781-.781Z" transform="translate(-115 -165)" fill="#717171"/>
  <g id="Grupo_149" data-name="Grupo 149" transform="translate(2.708 2.722)">
    <rect id="Retângulo_17" data-name="Retângulo 17" width="1.684" height="12.624" transform="translate(19.361 0)" fill="#717171"/>
    <rect id="Retângulo_18" data-name="Retângulo 18" width="1.684" height="10.94" transform="translate(16.841 0)" fill="#717171"/>
    <rect id="Retângulo_19" data-name="Retângulo 19" width="1.684" height="10.94" transform="translate(4.217 0)" fill="#717171"/>
    <rect id="Retângulo_20" data-name="Retângulo 20" width="1.684" height="10.94" transform="translate(12.624 0)" fill="#717171"/>
    <rect id="Retângulo_21" data-name="Retângulo 21" width="2.466" height="10.94" transform="translate(8.421 0)" fill="#717171"/>
    <rect id="Retângulo_22" data-name="Retângulo 22" width="0.808" height="10.94" transform="translate(2.56 0)" fill="#717171"/>
    <rect id="Retângulo_23" data-name="Retângulo 23" width="0.808" height="10.94" transform="translate(6.763 0)" fill="#717171"/>
    <rect id="Retângulo_24" data-name="Retângulo 24" width="0.808" height="10.94" transform="translate(15.157 0)" fill="#717171"/>
    <rect id="Retângulo_25" data-name="Retângulo 25" width="1.684" height="12.624" transform="translate(0 0)" fill="#717171"/>
  </g>
</svg>
