<svg xmlns="http://www.w3.org/2000/svg" width="255.035" height="17" viewBox="0 0 255.035 17">
  <g transform="translate(-334 -4933)">
    <g transform="translate(-636 155)">
      <g id="mastercard" transform="translate(970 4779.674)">
        <path d="M165.284,79.294a6.693,6.693,0,1,0,6.693,6.693A6.7,6.7,0,0,0,165.284,79.294Z" transform="translate(-152.511 -79.291)" fill="#717171"/>
        <path d="M8.263,79.415a6.694,6.694,0,1,0,0,13.014A7.914,7.914,0,0,1,8.263,79.415Z" transform="translate(0 -79.226)" fill="#717171"/>
      </g>
      <g id="visa" transform="translate(1002.643 4781.348)">
        <g transform="translate(12.04 0.176)">
          <g transform="translate(0 0)">
            <path d="M18.472,16.8,16.722,27.07h2.8L21.273,16.8Z" transform="translate(-16.722 -16.799)" fill="#717171"/>
          </g>
        </g>
        <g transform="translate(2.781 0.186)">
          <g>
            <path d="M10.774,16.814l-2.742,7L7.74,22.761A10.99,10.99,0,0,0,3.862,18.5l2.507,8.566,2.962-.005,4.408-10.252Z" transform="translate(-3.862 -16.812)" fill="#717171"/>
          </g>
        </g>
        <g transform="translate(0 0.089)">
          <g>
            <path d="M5.6,17.511a1.126,1.126,0,0,0-1.22-.834H.036l-.036.2c3.377.819,5.612,2.794,6.54,5.167Z" transform="translate(0 -16.677)" fill="#717171"/>
          </g>
        </g>
        <g transform="translate(16.591 0)">
          <g>
            <path d="M28.716,18.7a5.168,5.168,0,0,1,2.1.393l.253.119.379-2.226a7.226,7.226,0,0,0-2.508-.431c-2.766,0-4.716,1.393-4.731,3.39-.018,1.475,1.389,2.3,2.452,2.791,1.091.5,1.457.824,1.451,1.274-.009.688-.87,1-1.674,1a5.876,5.876,0,0,1-2.636-.538l-.361-.164-.394,2.3a8.866,8.866,0,0,0,3.119.547c2.943,0,4.855-1.377,4.875-3.51.012-1.167-.734-2.058-2.352-2.788-.979-.477-1.578-.793-1.572-1.274C27.112,19.156,27.621,18.7,28.716,18.7Z" transform="translate(-23.043 -16.554)" fill="#717171"/>
          </g>
        </g>
        <g transform="translate(24.389 0.188)">
          <g>
            <path d="M41.66,16.815H39.5a1.393,1.393,0,0,0-1.467.852L33.874,27.08h2.94s.48-1.266.588-1.543l3.585,0c.084.359.341,1.539.341,1.539h2.6Zm-3.452,6.62c.23-.59,1.115-2.871,1.115-2.871-.015.028.228-.594.373-.981l.189.886.649,2.966Z" transform="translate(-33.874 -16.815)" fill="#717171"/>
          </g>
        </g>
      </g>
      <g id="american" transform="translate(1051.189 4779.674)">
        <g transform="translate(28.184 1.505)">
          <g>
            <path d="M34.41,17.56l-.737,1.79h1.482Z" transform="translate(-33.673 -17.56)" fill="#717171"/>
          </g>
        </g>
        <g  transform="translate(2.707 1.505)">
          <g>
            <path d="M3.963,17.56l-.729,1.79H4.7Z" transform="translate(-3.234 -17.56)" fill="#717171"/>
          </g>
        </g>
        <g transform="translate(18.524 1.677)">
          <g>
            <path d="M23.963,17.847a1.112,1.112,0,0,0-.509-.081H22.132v1h1.3a1.01,1.01,0,0,0,.531-.092.461.461,0,0,0,.221-.427A.411.411,0,0,0,23.963,17.847Z" transform="translate(-22.132 -17.766)" fill="#717171"/>
          </g>
        </g>
        <g transform="translate(23.121 9.403)">
          <g>
            <path d="M29.459,27.077A1.054,1.054,0,0,0,28.946,27H27.624V28h1.3a1.045,1.045,0,0,0,.532-.091.486.486,0,0,0,.222-.432A.432.432,0,0,0,29.459,27.077Z" transform="translate(-27.624 -26.996)" fill="#717171"/>
          </g>
        </g>
        <g transform="translate(18.329 9.401)">
          <g>
            <path d="M23.3,26.994H21.9v1.144h1.386c.413,0,.67-.2.67-.592S23.687,26.994,23.3,26.994Z" transform="translate(-21.899 -26.994)" fill="#717171"/>
          </g>
        </g>
        <g transform="translate(8.551 7.731)">
          <g>
            <path d="M41.223,27.343a.278.278,0,0,0-.023-.022.742.742,0,0,0,.339-.623v-.957A.742.742,0,0,0,40.8,25H38.646a2.384,2.384,0,0,0-1.544.5.733.733,0,0,0-.691-.5H34.259a2.463,2.463,0,0,0-1.413.388A.73.73,0,0,0,32.207,25H28.625a.736.736,0,0,0-.655.408c-.051-.036-.089-.078-.142-.11a3.34,3.34,0,0,0-1.641-.3h-2.48a.735.735,0,0,0-.655.412A2.971,2.971,0,0,0,21.394,25h-3.43a.74.74,0,0,0-.545.236l-.813.876-.78-.866A.727.727,0,0,0,15.275,25H10.958a.742.742,0,0,0-.742.742v4.492a.742.742,0,0,0,.742.742H15.21a.739.739,0,0,0,.544-.239l.819-.886.778.875a.74.74,0,0,0,.555.249h2.087a.741.741,0,0,0,.742-.741v-.767h.6a3.142,3.142,0,0,0,1.632-.376v1.143a.741.741,0,0,0,.742.741h1.079a.741.741,0,0,0,.742-.741v-.9h.4c.1,0,.168,0,.218.007,0,.08,0,.177,0,.24v.654a.742.742,0,0,0,.742.741h1.077a.707.707,0,0,0,.328-.084.736.736,0,0,0,.327.084h3.583a.734.734,0,0,0,.322-.08.725.725,0,0,0,.322.08h2.091a2.746,2.746,0,0,0,1.614-.451.739.739,0,0,0,.681.451h2.091c1.521,0,2.427-.808,2.427-2.159A1.981,1.981,0,0,0,41.223,27.343Zm-19.89,1.381H19.994v1.507H17.907l-1.322-1.487L15.21,30.232H10.958V25.739h4.317L16.6,27.212l1.366-1.473h3.43c.851,0,1.81.239,1.81,1.482S22.272,28.727,21.333,28.724Zm5.937-.578a1.139,1.139,0,0,1,.523.377,1.3,1.3,0,0,1,.178.819v.891H26.894v-.562c0-.27.026-.67-.175-.88-.154-.16-.393-.2-.786-.2H24.786v1.64H23.708V25.741h2.48a2.66,2.66,0,0,1,1.291.211,1.053,1.053,0,0,1,.552,1A1.262,1.262,0,0,1,27.27,28.146Zm4.939-1.476H29.695v.818h2.452V28.4H29.695V29.3l2.514.005v.932H28.627V25.741h3.582Zm2.738,3.559H32.856v-.965h2.082a.62.62,0,0,0,.438-.111.4.4,0,0,0,.126-.294.379.379,0,0,0-.131-.3.565.565,0,0,0-.383-.1c-1-.033-2.261.031-2.261-1.389,0-.654.408-1.338,1.535-1.338h2.151v.956H34.444a.723.723,0,0,0-.43.082.377.377,0,0,0,.072.659,1.244,1.244,0,0,0,.419.051l.577.017a1.74,1.74,0,0,1,1.225.362,1.247,1.247,0,0,1,.322.953C36.628,29.782,36.026,30.234,34.947,30.229Zm4.387,0H37.243v-.965h2.082a.617.617,0,0,0,.437-.111.4.4,0,0,0,.126-.294.379.379,0,0,0-.131-.3.562.562,0,0,0-.383-.1c-1-.033-2.261.031-2.261-1.389,0-.654.408-1.338,1.535-1.338H40.8v.956H38.831a.723.723,0,0,0-.431.082.377.377,0,0,0,.072.659,1.247,1.247,0,0,0,.418.051l.577.017a1.744,1.744,0,0,1,1.226.362,1.254,1.254,0,0,1,.322.953C41.016,29.782,40.412,30.234,39.334,30.229Z" transform="translate(-10.216 -24.999)" fill="#717171"/>
          </g>
        </g>
        <g transform="translate(0 0)">
          <g>
            <path d="M36.189,15.762h-1.1a.742.742,0,0,0-.742.742v.464l-.51-.846a.745.745,0,0,0-.634-.358H31.567a.741.741,0,0,0-.742.742v.63l-.394-.922a.741.741,0,0,0-.68-.449H28.142a.735.735,0,0,0-.443.147.736.736,0,0,0-.444-.147H26.217a2.946,2.946,0,0,0-2.015.63.732.732,0,0,0-.719-.63h-1.1a.739.739,0,0,0-.66.418,1.522,1.522,0,0,0-.133-.1,3.156,3.156,0,0,0-1.672-.314H17.451a.725.725,0,0,0-.372.115.715.715,0,0,0-.372-.115H13.122a.722.722,0,0,0-.4.133.726.726,0,0,0-.4-.133h-1.79a.741.741,0,0,0-.681.453l-.638,1.5-.7-1.525a.745.745,0,0,0-.674-.431H6.084a.741.741,0,0,0-.742.742v.645l-.4-.939a.742.742,0,0,0-.682-.449H2.664a.743.743,0,0,0-.682.449L.06,20.7a.741.741,0,0,0,.681,1.034H1.908a.741.741,0,0,0,.683-.457l.227-.546H4.062l.223.542a.741.741,0,0,0,.686.46H7.156a.741.741,0,0,0,.742-.742v-.018l.141.319a.743.743,0,0,0,.678.441l.943,0a.74.74,0,0,0,.678-.442l.142-.318V21a.741.741,0,0,0,.742.741h1.1a.733.733,0,0,0,.4-.133.729.729,0,0,0,.4.133h3.586a.715.715,0,0,0,.372-.115.723.723,0,0,0,.372.115h1.075A.741.741,0,0,0,19.268,21V20.1h.41c.093,0,.159,0,.208.006.005.076,0,.167,0,.227l0,.1,0,.567a.743.743,0,0,0,.742.736h1.083a.724.724,0,0,0,.332-.09.73.73,0,0,0,.336.09h1.1a.732.732,0,0,0,.714-.6,3.113,3.113,0,0,0,1.943.6H27.4a.739.739,0,0,0,.684-.465l.218-.538h1.237l.227.546a.741.741,0,0,0,.685.456h2.185A.741.741,0,0,0,33.374,21v-.709l.659,1.092a.744.744,0,0,0,.636.358h1.52A.741.741,0,0,0,36.93,21V16.5A.742.742,0,0,0,36.189,15.762ZM12.321,20.995h-1.1l0-3.518L9.659,20.995H8.716L7.156,17.474v3.521H4.971l-.413-1H2.324l-.417,1H.74L2.663,16.5H4.256l1.827,4.254V16.5H7.836L9.241,19.55l1.29-3.048h1.79S12.321,20.995,12.321,20.995Zm4.386-3.556H14.194v.809h2.453v.921H14.194v.9h2.513v.929H13.121V16.5h3.586Zm4.3,1.472a1.255,1.255,0,0,1,.531.378,1.286,1.286,0,0,1,.178.824v.881H20.633l-.005-.567a1.351,1.351,0,0,0-.169-.875,1.052,1.052,0,0,0-.783-.192H18.525v1.634H17.45V16.5h2.469a2.524,2.524,0,0,1,1.3.215,1.048,1.048,0,0,1,.543,1A1.265,1.265,0,0,1,21.006,18.911Zm2.477,2.084h-1.1V16.5h1.1Zm12.706,0H34.668l-2.036-3.371v3.371H30.447l-.418-1H27.8l-.4,1H26.136a2.25,2.25,0,0,1-1.553-.5,2.253,2.253,0,0,1-.576-1.715,2.411,2.411,0,0,1,.575-1.758,2.175,2.175,0,0,1,1.63-.523h1.037v.963H26.232a1.03,1.03,0,0,0-.825.266,1.482,1.482,0,0,0-.308,1.018,1.549,1.549,0,0,0,.3,1.054,1.038,1.038,0,0,0,.748.232h.481L28.142,16.5H29.75l1.816,4.249V16.5H33.2l1.887,3.129V16.5h1.1Zm-9.582-2.787-.466,1.087a.861.861,0,0,1-.211-.022,1.141,1.141,0,0,1-.085-.523,1.09,1.09,0,0,1,.085-.487c.031-.03.057-.056.309-.056Z" transform="translate(0 -15.762)" fill="#717171"/>
          </g>
        </g>
        <g transform="translate(15.611 8.957)">
          <g>
            <path d="M18.651,28.233,20.3,30.065v-3.6Z" transform="translate(-18.651 -26.463)" fill="#717171"/>
          </g>
        </g>
        <g transform="translate(10.364 9.403)">
          <g>
            <path d="M15.073,27h-2.69v.816h2.356v.917H12.383v.894h2.638l1.226-1.32Z" transform="translate(-12.383 -26.996)" fill="#717171"/>
          </g>
        </g>
      </g>
      <g id="dinners" transform="translate(1105.594 4778)">
        <g transform="translate(2.352 16.479)">
          <g>
            <path d="M5.023,39.023l0,0h0Z" transform="translate(-5.023 -39.023)" fill="#717171"/>
          </g>
        </g>
        <g transform="translate(0.832 15.31)">
          <g>
            <path d="M3.382,36.535c-.109,0-.214-.009-.321-.01v.05H3.1a.208.208,0,0,1,.216.234l0,.9,0,0-.008.008L2.25,36.525c-.07,0-.139.01-.211.01s-.175-.009-.261-.01v.05H1.8a.223.223,0,0,1,.225.224v1c0,.188-.052.31-.223.311H1.777v.051c.1,0,.208-.01.312-.01s.2.009.295.01v-.05H2.355c-.187,0-.233-.082-.233-.288v-1l1.229,1.376h.078a1.642,1.642,0,0,1-.012-.228V36.886c0-.283.119-.311.221-.311h.024v-.05C3.57,36.526,3.476,36.535,3.382,36.535Z" transform="translate(-1.777 -36.525)" fill="#717171"/>
          </g>
        </g>
        <g transform="translate(0.811 15.288)">
          <g>
            <path d="M3.65,36.483c-.1,0-.195.007-.291.007s-.22-.009-.331-.009h-.01v.091h.063c.068,0,.195.025.2.213v.871l-1.041-1.17c-.08,0-.148,0-.219,0-.088,0-.181-.009-.272-.009h-.01v.091h.041a.2.2,0,0,1,.205.2v1c0,.188-.046.289-.2.29H1.733v.091h.01c.107,0,.216-.009.322-.009s.2.009.305.009h.011v-.09H2.33c-.178,0-.209-.061-.213-.266v-.949l1.2,1.339.1,0h.012l0-.013a1.64,1.64,0,0,1-.014-.237V36.865c0-.28.1-.288.2-.291H3.66v-.091Zm0,.08H3.615c-.1,0-.211.019-.211.3v1.077a1.505,1.505,0,0,0,.014.239h-.09l-1.22-1.36V37.8c0,.206.04.277.223.277h.04v.071c-.1,0-.2-.009-.3-.009s-.215.009-.322.009v-.071h.033c.163,0,.214-.111.214-.3v-1a.213.213,0,0,0-.216-.213h-.03v-.071c.09,0,.182.01.272.01.071,0,.14-.01.211-.01l1.054,1.186,0,0v-.888a.2.2,0,0,0-.206-.224H3.028v-.071c.111,0,.22.01.331.01s.194-.01.292-.01Z" transform="translate(-1.733 -36.48)" fill="#717171"/>
          </g>
        </g>
        <g transform="translate(4.526 15.31)">
          <g>
            <path d="M10.945,37.787c-.071.266-.208.29-.488.288-.149,0-.3,0-.3-.165v-.562h.294c.165,0,.182.1.194.233l.051-.011c0-.087-.007-.175-.007-.262s0-.177.007-.267h-.051c-.013.122-.052.21-.2.208h-.292v-.641H10.5c.246,0,.288.125.3.274l.051-.013c0-.066-.007-.154-.007-.232,0-.04,0-.079,0-.112-.161,0-.4.01-.6.01s-.434-.009-.58-.01v.05H9.69c.084,0,.185.015.185.146v1.241c0,.131-.1.145-.185.146H9.667v.049c.138,0,.412-.009.619-.009s.477.009.629.009c.02-.119.047-.239.076-.359Z" transform="translate(-9.667 -36.526)" fill="#717171"/>
          </g>
        </g>
        <g transform="translate(2.781 15.214)">
          <g>
            <path d="M7.544,36.326l-.011,0v.01c0,.062-.052.063-.118.065H6.181c-.06,0-.1,0-.121-.062v-.007H5.984v.01a1.28,1.28,0,0,1-.015.2c-.007.068-.019.135-.029.2v.013h.091v-.008c.039-.176.036-.205.21-.207h.378V37.79c0,.184-.056.185-.185.188H6.38v.091h.01c.093,0,.259-.01.4-.01s.293.01.386.01h.01v-.091H7.131c-.113,0-.184-.015-.186-.193v-1.25h.378c.15,0,.159.129.166.218v.014l.084-.03.007,0v-.007c0-.064,0-.127,0-.19s.016-.127.026-.191v-.01Zm.029.21c0,.065,0,.128,0,.191l-.072.027c-.005-.088-.016-.227-.175-.227H6.934v1.259c0,.184.083.2.2.2h.046v.071c-.092,0-.258-.01-.386-.01s-.308.01-.4.01v-.071h.044c.131,0,.2-.011.2-.2V36.527H6.242c-.177,0-.184.043-.22.216H5.951c.01-.067.022-.132.029-.2a1.425,1.425,0,0,0,.014-.2h.058c.019.071.078.068.142.068H7.415c.064,0,.123,0,.128-.073l.056.01C7.589,36.408,7.581,36.47,7.573,36.535Z" transform="translate(-5.94 -36.322)" fill="#717171"/>
          </g>
        </g>
        <g transform="translate(2.804 15.238)">
          <g>
            <path d="M7.577,36.373c-.01.069-.077.073-.136.072H6.208c-.056,0-.117,0-.138-.068H6.031a1.44,1.44,0,0,1-.015.191c-.007.064-.017.126-.027.19h.051c.031-.165.052-.219.228-.216h.4v1.276c0,.191-.077.21-.206.21H6.426v.049c.094,0,.254-.009.39-.009s.281.009.375.009v-.049H7.157c-.114,0-.207-.029-.207-.215V36.542h.4c.16,0,.18.136.185.224l.051-.019c0-.061,0-.123,0-.185s.016-.122.025-.183Z" transform="translate(-5.99 -36.373)" fill="#717171"/>
          </g>
        </g>
        <g  transform="translate(0 15.288)">
          <g>
            <path d="M.732,36.48c-.112,0-.254.009-.371.009S.1,36.48.01,36.48H0v.091H.043c.086,0,.164.01.165.126v1.24c0,.116-.079.124-.165.125H0v.091H.01c.094,0,.233-.01.348-.01s.26.01.374.01H.743v-.091H.7c-.086,0-.165-.008-.165-.125V36.7c0-.116.079-.125.165-.125H.743V36.48Zm0,.082H.7c-.085,0-.176.011-.176.135v1.24c0,.125.09.135.176.135H.732v.071c-.114,0-.256-.009-.374-.009s-.256.009-.348.009v-.071H.043c.085,0,.175-.01.175-.135V36.7c0-.125-.09-.135-.175-.135H.009v-.07c.093,0,.235.009.351.009s.26-.009.371-.009Z" transform="translate(0 -36.48)" fill="#717171"/>
          </g>
        </g>
        <g transform="translate(3.879 0)">
          <g>
            <path d="M15.8,3.825h-2.39A5.01,5.01,0,0,0,8.285,8.948a5.089,5.089,0,0,0,5.123,5.035H15.8a5.279,5.279,0,0,0,5.311-5.035A5.187,5.187,0,0,0,15.8,3.825Zm-2.378,9.721A4.651,4.651,0,1,1,18.069,8.9,4.652,4.652,0,0,1,13.419,13.546Z" transform="translate(-8.285 -3.825)" fill="#717171"/>
          </g>
        </g>
        <g transform="translate(15.125 11.024)">
          <g transform="translate(0 0)">
            <path d="M33.165,30.586c-.122,0-.218,0-.218-.145V27.434c0-.036-.007-.062-.035-.062a.472.472,0,0,0-.1.049,2.594,2.594,0,0,1-.448.187v.069c.166.048.231.057.231.34v2.424c0,.145-.087.145-.21.145h-.083V30.7c.162,0,.318-.009.475-.009s.31.009.457.009v-.112Z" transform="translate(-32.306 -27.372)" fill="#717171"/>
          </g>
        </g>
        <g transform="translate(10.067 2.319)">
          <g>
            <path d="M21.5,8.778v5.5a2.946,2.946,0,0,0,0-5.5Z" transform="translate(-21.503 -8.778)" fill="#717171"/>
          </g>
        </g>
        <g transform="translate(18.206 11.024)">
          <g transform="translate(0 0)">
            <path d="M40.115,28.709a1.1,1.1,0,0,0-.647.313V27.433c0-.036-.01-.062-.036-.062a.415.415,0,0,0-.1.048,2.626,2.626,0,0,1-.449.187v.07c.166.05.232.057.232.34v1.872a5.074,5.074,0,0,1-.061.775l.091.048.131-.1a1.266,1.266,0,0,0,.6.153,1.1,1.1,0,0,0,1.041-1.141A.847.847,0,0,0,40.115,28.709Zm-.2,1.942a.468.468,0,0,1-.448-.444V29.149a.665.665,0,0,1,.413-.205.83.83,0,0,1,.7.862C40.576,30.193,40.381,30.651,39.915,30.651Z" transform="translate(-38.887 -27.371)" fill="#717171"/>
          </g>
        </g>
        <g id="Grupo_75" data-name="Grupo 75" transform="translate(16.057 12.428)">
          <g id="Grupo_74" data-name="Grupo 74">
            <path id="Caminho_38" data-name="Caminho 38" d="M36.281,32.138c-.073,0-.122,0-.122-.082V30.448c0-.049,0-.078-.035-.078s-.287.034-.678.06v.079c.156.044.366.091.366.179V31.86a.985.985,0,0,1-.527.264c-.379,0-.379-.375-.379-.505V30.5c0-.1,0-.126-.049-.126s-.4.026-.561.029v.083c.244.021.261.13.261.244v1.114a.47.47,0,0,0,.478.517,1.18,1.18,0,0,0,.771-.365v.353l.022.013a4.418,4.418,0,0,1,.628-.135v-.09C36.4,32.134,36.334,32.138,36.281,32.138Z" transform="translate(-34.296 -30.37)" fill="#717171"/>
          </g>
        </g>
        <g transform="translate(9.71 12.362)">
          <g>
            <path d="M21.058,30.655a.306.306,0,0,1,.339-.287.448.448,0,0,1,.476.431h.1l-.03-.443a1.145,1.145,0,0,0-.5-.127.6.6,0,0,0-.674.557c0,.7.948.533.948,1.048a.31.31,0,0,1-.353.311.574.574,0,0,1-.549-.532l-.078.022.048.5a1.154,1.154,0,0,0,.531.147c.518,0,.749-.305.749-.593C22.068,31.008,21.058,31.165,21.058,30.655Z" transform="translate(-20.74 -30.229)" fill="#717171"/>
          </g>
        </g>
        <g transform="translate(0.015 11.312)">
          <g transform="translate(0 0)">
            <path d="M1.3,27.987c-.322,0-.57.01-.753.01s-.343,0-.513-.01V28.1c.2,0,.4-.022.4.369h0v2.112c-.012.3-.139.3-.4.331v.111c.2,0,.388-.008.583-.008s.409.008.631.008c1.541,0,1.793-1.082,1.793-1.514A1.585,1.585,0,0,0,1.3,27.987Zm.013,2.9c-.213,0-.453-.039-.453-.374V28.144a3.29,3.29,0,0,1,.34-.017,1.308,1.308,0,0,1,1.362,1.4A1.212,1.212,0,0,1,1.311,30.886Z" transform="translate(-0.031 -27.987)" fill="#717171"/>
          </g>
        </g>
        <g transform="translate(0.02 15.31)">
          <g>
            <path d="M.722,36.576H.745v-.05c-.109,0-.246.01-.361.01s-.249-.009-.341-.01v.05H.066c.084,0,.185.015.185.146v1.24c0,.132-.1.146-.185.146H.043v.05c.092,0,.226-.01.338-.01s.252.009.364.01v-.05H.722c-.085,0-.186-.015-.186-.146v-1.24C.536,36.591.637,36.576.722,36.576Z" transform="translate(-0.043 -36.526)" fill="#717171"/>
          </g>
        </g>
        <g transform="translate(3.174 12.363)">
          <g>
            <path d="M7.638,32.108c-.122,0-.218,0-.218-.145v-1.67c0-.035-.009-.061-.03-.061a.156.156,0,0,0-.079.022c-.017.013-.26.095-.465.157v.069c.161.086.227.112.227.3v1.18c0,.145-.088.145-.209.145H6.78v.112c.161,0,.318-.009.474-.009s.309.007.457.009v-.112H7.638Z" transform="translate(-6.78 -30.232)" fill="#717171"/>
          </g>
        </g>
        <g transform="translate(8.115 12.362)">
          <g>
            <path d="M18.569,30.23c-.265,0-.448.279-.557.448H18v-.392c0-.043-.013-.056-.039-.056s-.213.112-.531.248v.066c.066.034.226.061.226.2v1.221c0,.146-.087.146-.208.146h-.118v.112c.157,0,.339-.009.518-.009s.369.005.609.009v-.112h-.243c-.122,0-.209,0-.209-.145V30.939a.364.364,0,0,1,.318-.361c.152,0,.152.1.287.1a.212.212,0,0,0,.2-.223A.237.237,0,0,0,18.569,30.23Z" transform="translate(-17.333 -30.23)" fill="#717171"/>
          </g>
        </g>
        <g transform="translate(3.427 11.265)">
          <g>
            <path d="M7.533,27.886a.222.222,0,0,0-.213.209.224.224,0,0,0,.213.219.219.219,0,0,0,.214-.219A.213.213,0,0,0,7.533,27.886Z" transform="translate(-7.32 -27.886)" fill="#717171"/>
          </g>
        </g>
        <g transform="translate(6.399 12.361)">
          <g>
            <path d="M15.242,31.729a.835.835,0,0,1-.588.291.726.726,0,0,1-.639-.752.974.974,0,0,1,0-.252h1.223l.039-.027a.543.543,0,0,0,0-.079.691.691,0,0,0-.736-.683c-.3,0-.879.252-.879,1.105a.875.875,0,0,0,.831.949,1.02,1.02,0,0,0,.8-.492Zm-.714-1.361a.369.369,0,0,1,.379.4c0,.052-.013.109-.122.109h-.758C14.081,30.562,14.264,30.367,14.529,30.367Z" transform="translate(-13.667 -30.227)" fill="#717171"/>
          </g>
        </g>
        <g transform="translate(6.067 2.319)">
          <g>
            <path d="M12.958,11.529a2.949,2.949,0,0,0,1.891,2.75v-5.5A2.952,2.952,0,0,0,12.958,11.529Z" transform="translate(-12.958 -8.778)" fill="#717171"/>
          </g>
        </g>
        <g transform="translate(15.4 15.31)">
          <g>
            <path d="M34.5,36.536c-.108,0-.213-.009-.318-.009v.049h.042a.208.208,0,0,1,.216.234l0,.9-.006,0-.008.008-1.053-1.192c-.07,0-.14.01-.211.01-.087,0-.176-.009-.263-.01v.049h.021a.224.224,0,0,1,.225.224v1c0,.188-.054.31-.224.311h-.024v.049c.1,0,.207-.009.313-.009s.2.009.294.009v-.049h-.029c-.186,0-.233-.082-.233-.288v-1l1.229,1.376h.078a1.8,1.8,0,0,1-.011-.228V36.887c0-.285.119-.311.221-.312h.026v-.049C34.687,36.526,34.593,36.536,34.5,36.536Z" transform="translate(-32.894 -36.526)" fill="#717171"/>
          </g>
        </g>
        <g transform="translate(4.506 15.288)">
          <g>
            <path d="M10.919,37.738h-.01l0,.009c-.071.266-.186.28-.471.282-.155,0-.279,0-.279-.144v-.543h.274c.157,0,.158.081.175.225v.011l.082-.016.009,0v-.008c0-.09-.007-.18-.007-.27s0-.185.007-.277V37h-.091v.009c-.016.127-.04.2-.177.2h-.272v-.6h.319c.244,0,.265.113.279.267v.011l.083-.021.007,0v-.009c-.005-.068-.007-.156-.007-.239,0-.045,0-.088,0-.123v-.01H10.83c-.161,0-.406.009-.606.009s-.445-.009-.589-.009h-.01v.091h.044c.086,0,.164.01.164.126v1.24c0,.116-.078.124-.164.125H9.625v.09h.01c.135,0,.417-.009.629-.009s.486.009.637.009h.008l0-.008c.022-.125.05-.25.08-.376l0-.01Zm-.017.406c-.152,0-.424-.01-.637-.01s-.5.01-.63.01v-.07h.033c.086,0,.175-.011.175-.135V36.7c0-.125-.089-.135-.175-.135H9.635v-.071c.144,0,.391.01.59.01s.444-.01.605-.01c0,.1,0,.259.006.362l-.072.019c-.012-.154-.04-.277-.289-.277h-.329v.621h.282c.141,0,.172-.081.186-.209h.071c0,.093-.007.185-.007.278s0,.18.007.27l-.071.014c-.014-.142-.021-.234-.184-.234h-.284v.551c0,.155.137.155.289.155.284,0,.409-.019.48-.288l.066.016C10.951,37.893,10.923,38.018,10.9,38.144Z" transform="translate(-9.625 -36.479)" fill="#717171"/>
          </g>
        </g>
        <g transform="translate(15.38 15.29)">
          <g>
            <path d="M34.768,36.484c-.1,0-.2.009-.293.009s-.219-.009-.331-.009h-.011v.091H34.2a.186.186,0,0,1,.2.213v.871l-1.042-1.171c-.081,0-.148.005-.22.005-.088,0-.181-.009-.272-.009H32.85v.091h.041a.2.2,0,0,1,.205.2v1c0,.188-.047.289-.2.29H32.85v.091h.01c.107,0,.216-.01.322-.01s.2.01.3.01h.01v-.091h-.05c-.178,0-.209-.06-.212-.266v-.949l1.2,1.339.1,0h.012l0-.01a1.612,1.612,0,0,1-.013-.238V36.866c0-.279.1-.288.2-.291h.049v-.09Zm0,.081h-.036c-.1,0-.214.018-.214.3v1.078a1.448,1.448,0,0,0,.015.239h-.09l-1.219-1.36V37.8c0,.206.04.278.223.278h.04v.071c-.1,0-.2-.01-.3-.01s-.216.01-.322.01v-.071H32.9c.164,0,.213-.111.213-.3v-1a.211.211,0,0,0-.215-.213h-.03v-.071c.089,0,.183.01.272.01.072,0,.14-.01.211-.01L34.4,37.681l0,0h0v-.888a.2.2,0,0,0-.206-.223h-.05v-.071c.11,0,.22.01.331.01s.194-.01.291-.01Z" transform="translate(-32.85 -36.484)" fill="#717171"/>
          </g>
        </g>
        <g transform="translate(13.883 15.369)">
          <g>
            <path d="M30.189,36.651c-.414,0-.537.37-.537.687,0,.424.194.829.577.829.46,0,.539-.405.539-.751S30.583,36.651,30.189,36.651Zm.041,1.506c-.375,0-.567-.4-.568-.819,0-.316.121-.675.527-.676.386,0,.571.412.571.754S30.681,38.157,30.23,38.157Z" transform="translate(-29.652 -36.651)" fill="#717171"/>
          </g>
        </g>
        <g transform="translate(13.56 15.274)">
          <g>
            <path d="M29.829,36.45a.853.853,0,0,0-.865.865.828.828,0,0,0,.877.839.861.861,0,0,0,.886-.9A.823.823,0,0,0,29.829,36.45Zm.035,1.62c-.393,0-.587-.413-.588-.839,0-.319.126-.7.547-.7.4,0,.59.427.591.774S30.332,38.07,29.864,38.07Z" transform="translate(-28.964 -36.45)" fill="#717171"/>
          </g>
        </g>
        <g transform="translate(17.799 15.565)">
          <g>
            <path d="M38.241,37.071h0l-.22.67h.443Zm0,.025.205.634h-.413Z" transform="translate(-38.017 -37.071)" fill="#717171"/>
          </g>
        </g>
        <g transform="translate(13.54 15.254)">
          <g>
            <path d="M29.806,36.407a.874.874,0,0,0-.885.885.849.849,0,0,0,.9.861.882.882,0,0,0,.906-.918A.842.842,0,0,0,29.806,36.407Zm.011,1.735a.837.837,0,0,1-.886-.85.86.86,0,0,1,.873-.874.831.831,0,0,1,.907.817A.867.867,0,0,1,29.817,38.142Z" transform="translate(-28.921 -36.407)" fill="#717171"/>
          </g>
        </g>
        <g  transform="translate(19.012 15.291)">
          <g>
            <path d="M41.888,37.736h-.007l0,.009a.491.491,0,0,1-.07.167.331.331,0,0,1-.221.123,1.459,1.459,0,0,1-.179.01c-.046,0-.088,0-.131,0-.074-.011-.132-.034-.132-.123V36.694c0-.12.059-.115.151-.118h.069v-.091h-.01c-.122,0-.241.009-.361.009s-.25-.009-.375-.009h-.01v.091h.043c.087,0,.167.01.168.125V37.92c0,.14-.083.146-.168.147h-.043v.091h.01c.208,0,.418-.01.625-.01s.417.01.625.01h.008l0-.008c.029-.135.062-.266.088-.4l0-.012h-.081Zm-.019.412c-.207,0-.416-.01-.624-.01s-.417.01-.625.01v-.07h.032c.086,0,.179-.011.179-.16V36.7c0-.125-.093-.135-.179-.135h-.032v-.071c.126,0,.249.009.375.009s.239-.009.361-.009v.071h-.06c-.088,0-.16,0-.16.127v1.221c0,.1.066.124.142.133a1.718,1.718,0,0,0,.313-.005.334.334,0,0,0,.227-.127.534.534,0,0,0,.073-.17h.068C41.931,37.88,41.9,38.012,41.868,38.148Z" transform="translate(-40.608 -36.485)" fill="#717171"/>
          </g>
        </g>
        <g transform="translate(17.296 15.249)">
          <g>
            <path d="M38.574,38.04a.163.163,0,0,1-.166-.1c-.03-.072-.059-.161-.088-.244l-.436-1.239c-.008-.018-.014-.041-.02-.056s0,0,0,0h0a.045.045,0,0,0-.014,0,.908.908,0,0,1-.211.1,2.026,2.026,0,0,1-.088.3l-.38,1.087a.225.225,0,0,1-.215.162h0v.049c.082-.005.163-.01.246-.01s.185.005.276.01v-.049H37.45c-.077,0-.185-.01-.187-.094a1,1,0,0,1,.052-.187l.078-.254h.553l.1.283a.765.765,0,0,1,.048.174c0,.072-.1.078-.157.08h-.016v.049h0c.117,0,.232-.01.344-.01s.213.005.317.01V38.04Zm-1.142-.647.227-.691h.022l.224.691Z" transform="translate(-36.944 -36.396)" fill="#717171"/>
          </g>
        </g>
        <g transform="translate(20.084 15.233)">
          <g>
            <path d="M43.147,36.362a.249.249,0,1,0,.248.25A.244.244,0,0,0,43.147,36.362Zm0,.452a.2.2,0,1,1,.2-.2A.2.2,0,0,1,43.147,36.814Z" transform="translate(-42.897 -36.362)" fill="#717171"/>
          </g>
        </g>
        <g transform="translate(20.209 15.349)">
          <g>
            <path d="M43.36,36.807l-.043-.056a.078.078,0,0,0,.059-.075c0-.045-.039-.066-.084-.066h-.127v.012c.032,0,.036.008.036.033v.185c0,.019-.007.018-.037.023v.011h.121v-.011c-.031-.005-.037,0-.037-.02v-.084h.029c.046.067.067.115.089.115h.049v-.008A.245.245,0,0,1,43.36,36.807Zm-.083-.064h-.03v-.118h.029c.027,0,.049.015.049.055S43.31,36.743,43.277,36.743Z" transform="translate(-43.164 -36.609)" fill="#717171"/>
          </g>
        </g>
        <g transform="translate(17.277 15.229)">
          <g>
            <path d="M38.551,37.993h0a.138.138,0,0,1-.147-.087c-.03-.07-.059-.157-.088-.242l-.435-1.239c-.008-.02-.015-.041-.022-.06a.03.03,0,0,0-.026-.014.048.048,0,0,0-.022.006,1.363,1.363,0,0,1-.216.1c-.021.094-.064.211-.093.3l-.38,1.087a.2.2,0,0,1-.2.146H36.9v.091h.01c.087,0,.171-.01.256-.01s.191.005.286.01h.01v-.09h-.036c-.079,0-.166-.014-.166-.073a.971.971,0,0,1,.051-.182l.073-.24h.523l.089.268a.728.728,0,0,1,.048.166c0,.046-.082.059-.137.059h-.035v.092h.011c.12,0,.239-.01.355-.01s.22.006.325.01h.011v-.092h-.024Zm.015.084c-.107,0-.214-.01-.327-.01s-.234.005-.355.01v-.07h.026c.054,0,.147-.01.147-.069a.765.765,0,0,0-.049-.17l-.092-.275H37.38l-.077.247a.982.982,0,0,0-.051.184c0,.072.1.083.177.083h.027v.071c-.1,0-.192-.009-.287-.009s-.17,0-.256.009v-.071h.014a.215.215,0,0,0,.206-.155l.379-1.086a1.956,1.956,0,0,0,.088-.294,1.184,1.184,0,0,0,.216-.1.077.077,0,0,1,.019,0,.015.015,0,0,1,.016.007l.022.059.435,1.239c.029.083.057.17.088.243a.148.148,0,0,0,.155.094h.015Z" transform="translate(-36.902 -36.352)" fill="#717171"/>
          </g>
        </g>
        <g transform="translate(19.033 15.31)">
          <g>
            <path d="M41.92,37.778a.54.54,0,0,1-.073.167.362.362,0,0,1-.233.132,1.792,1.792,0,0,1-.183.01c-.046,0-.09,0-.133-.006-.076-.008-.151-.041-.151-.143V36.716c0-.131.083-.139.171-.139h.049v-.05c-.117,0-.232.01-.349.01s-.243-.009-.365-.01v.05h.023c.083,0,.188.016.188.146v1.219c0,.152-.1.168-.188.168h-.023v.05c.206,0,.41-.01.615-.01s.411.01.616.01c.028-.128.059-.254.084-.382Z" transform="translate(-40.653 -36.527)" fill="#717171"/>
          </g>
        </g>
        <g transform="translate(12.748 15.288)">
          <g>
            <path d="M27.928,38.062c-.087,0-.164-.008-.166-.125V36.7c0-.116.079-.125.166-.125h.042V36.48h-.01c-.11,0-.253.01-.371.01s-.258-.009-.35-.009h-.01v.091h.044c.086,0,.164.01.165.126v1.24c0,.116-.08.124-.165.125h-.044v.091h.01c.092,0,.233-.01.349-.01s.259.01.373.01h.01v-.091Zm.033.081c-.113,0-.255-.009-.373-.009s-.257.009-.349.009v-.071h.033c.086,0,.175-.01.175-.135V36.7c0-.125-.089-.135-.175-.135h-.033v-.07c.092,0,.234.009.35.009s.263-.009.372-.009v.07h-.032c-.086,0-.176.011-.176.135v1.24c0,.125.09.135.176.135h.032v.071Z" transform="translate(-27.229 -36.48)" fill="#717171"/>
          </g>
        </g>
        <g transform="translate(7.65 15.29)">
          <g>
            <path d="M18.256,36.483c-.1,0-.194.01-.291.01s-.22-.01-.331-.01h-.01v.091h.062c.069,0,.2.025.2.213v.871L16.84,36.486c-.079,0-.148.006-.217.006-.089,0-.182-.009-.272-.009H16.34v.091h.041a.2.2,0,0,1,.205.2v1c0,.189-.046.29-.2.291H16.34v.091h.011c.106,0,.216-.01.322-.01s.2.01.305.01h.01v-.091h-.05c-.179,0-.211-.06-.213-.266V36.85l1.2,1.339.1,0h.012v-.011a1.441,1.441,0,0,1-.015-.239V36.866c0-.28.1-.288.2-.291h.045v-.091h-.01Zm0,.081h-.036c-.1,0-.211.019-.211.3v1.078a1.562,1.562,0,0,0,.014.239h-.09l-1.219-1.36V37.8c0,.206.04.278.223.278h.039v.07c-.1,0-.2-.01-.3-.01s-.216.01-.322.01v-.07h.033c.164,0,.213-.111.213-.3v-1a.212.212,0,0,0-.215-.213h-.03v-.071c.089,0,.183.009.272.009.07,0,.14-.009.211-.009l1.054,1.186h0l0,0h0v-.888a.2.2,0,0,0-.206-.223h-.052v-.07c.111,0,.22.009.331.009s.194-.009.292-.009v.07Z" transform="translate(-16.34 -36.483)" fill="#717171"/>
          </g>
        </g>
        <g  transform="translate(7.67 15.31)">
          <g>
            <path d="M17.987,36.536c-.109,0-.213-.009-.321-.01v.049h.042a.208.208,0,0,1,.217.234l0,.9,0,0-.007.008-1.054-1.192c-.071,0-.139.01-.211.01-.088,0-.176-.009-.263-.01v.049H16.4a.223.223,0,0,1,.226.224v1c0,.189-.054.311-.223.312h-.023v.049c.1,0,.208-.01.312-.01s.2.01.3.01v-.049h-.029c-.187,0-.233-.082-.234-.288v-1l1.23,1.376h.078a1.573,1.573,0,0,1-.012-.228V36.887c0-.283.119-.311.221-.312h.025v-.049C18.175,36.526,18.081,36.536,17.987,36.536Z" transform="translate(-16.382 -36.526)" fill="#717171"/>
          </g>
        </g>
        <g  transform="translate(5.981 15.31)">
          <g>
            <path d="M14.146,37.963l-.412-.617.012,0a.436.436,0,0,0,.323-.408c0-.328-.256-.4-.553-.406-.125,0-.239.01-.381.01s-.28-.009-.357-.01v.051h.032c.074,0,.178.012.178.19v1.2c0,.1-.088.139-.178.139h-.032v.049c.114,0,.222-.01.333-.01.133,0,.266.01.4.01v-.049h-.032c-.108,0-.205-.013-.205-.2v-.517h.173l0,.006a7.326,7.326,0,0,0,.485.763c.072,0,.147-.01.221-.01s.148.008.222.01v-.051A.273.273,0,0,1,14.146,37.963Zm-.75-.636h-.127V36.6h.01a1.063,1.063,0,0,1,.136-.009.335.335,0,0,1,.356.356C13.77,37.231,13.635,37.327,13.4,37.327Z" transform="translate(-12.776 -36.527)" fill="#717171"/>
          </g>
        </g>
        <g transform="translate(5.961 15.29)">
          <g>
            <path d="M14.362,38.063a.246.246,0,0,1-.222-.135l-.4-.6a.454.454,0,0,0,.324-.422c0-.344-.275-.426-.574-.427-.126,0-.24.01-.381.01s-.291-.01-.367-.01h-.01v.092h.052c.074,0,.156,0,.158.169v1.2c0,.08-.072.117-.158.117h-.052v.091h.01c.118,0,.229-.01.343-.01.134,0,.272.01.407.01H13.5v-.091h-.053c-.11,0-.181,0-.184-.18v-.5h.14a6.664,6.664,0,0,0,.49.764c.082,0,.158-.006.23-.006s.154.01.233.01h.01v-.091Zm0,.084c-.078,0-.154-.01-.232-.01s-.15.01-.223.01a6.632,6.632,0,0,1-.493-.769h-.156v.508c0,.184.085.19.194.19h.043v.071c-.136,0-.272-.01-.407-.01-.114,0-.225.01-.343.01v-.071h.042c.088,0,.169-.04.169-.127v-1.2c0-.171-.1-.18-.169-.18h-.042v-.07c.076,0,.222.009.367.009s.256-.009.381-.009c.3,0,.564.081.564.417a.448.448,0,0,1-.33.417l.4.606a.263.263,0,0,0,.23.143Z" transform="translate(-12.733 -36.484)" fill="#717171"/>
          </g>
        </g>
        <g transform="translate(12.769 15.31)">
          <g>
            <path d="M27.951,36.576h.022v-.05c-.109,0-.246.01-.361.01s-.249-.009-.339-.01v.05H27.3c.085,0,.185.015.185.146v1.24c0,.131-.1.146-.185.146h-.022v.049c.091,0,.224-.009.338-.009s.251.009.363.009v-.049h-.022c-.086,0-.185-.015-.185-.146v-1.24C27.766,36.591,27.865,36.576,27.951,36.576Z" transform="translate(-27.273 -36.526)" fill="#717171"/>
          </g>
        </g>
        <g transform="translate(4.233 12.361)">
          <g>
            <path d="M11.226,32.1h-.079c-.122,0-.217,0-.217-.145V30.837c0-.339-.131-.609-.5-.609a1.277,1.277,0,0,0-.754.326v-.283c0-.035-.013-.044-.025-.044a6.091,6.091,0,0,1-.575.209v.082c.2.082.253.125.253.287h0v1.153c0,.145-.087.145-.208.145H9.041v.112c.156,0,.313-.009.47-.009s.309.009.462.009V32.1H9.894c-.122,0-.219,0-.219-.145V30.67a1.178,1.178,0,0,1,.505-.209c.249,0,.4.123.4.371v1.126c0,.146-.087.146-.208.146h-.078v.111c.155,0,.313-.008.47-.008s.309.008.462.008Z" transform="translate(-9.041 -30.227)" fill="#717171"/>
          </g>
        </g>
        <g transform="translate(6.486 15.384)">
          <g>
            <path d="M13.988,36.685a1.271,1.271,0,0,0-.135.01V37.4h.116c.237,0,.364-.089.364-.369A.323.323,0,0,0,13.988,36.685Zm-.019.706h-.106V36.7a.938.938,0,0,1,.125-.009.315.315,0,0,1,.336.337C14.322,37.306,14.2,37.387,13.969,37.391Z" transform="translate(-13.853 -36.685)" fill="#717171"/>
          </g>
        </g>
        <g transform="translate(11.011 15.214)">
          <g>
            <path d="M25.124,36.326l-.013,0v.01c0,.062-.051.063-.117.065H23.761c-.061,0-.1,0-.121-.062l0-.007h-.074v.01a1.557,1.557,0,0,1-.014.2c-.008.068-.019.135-.029.2v.012h.091l0-.008c.039-.176.035-.205.21-.207H24.2V37.79c0,.184-.056.185-.186.188H23.96v.091h.011c.092,0,.259-.01.4-.01s.293.01.386.01h.009v-.091h-.056c-.112,0-.184-.015-.185-.193v-1.25H24.9c.149,0,.159.129.165.218v.014l.083-.03.007,0v-.007c0-.063,0-.127,0-.19s.016-.127.026-.191l0-.01Zm.028.21c0,.065,0,.128,0,.191l-.071.027c-.005-.088-.016-.227-.175-.227h-.39v1.259c0,.184.083.2.2.2h.044v.071c-.09,0-.257-.01-.385-.01s-.308.01-.4.01v-.071h.045c.131,0,.2-.011.2-.2V36.527h-.389c-.177,0-.185.043-.221.216H23.53c.01-.067.022-.132.029-.2a1.359,1.359,0,0,0,.014-.2h.058c.018.071.078.068.141.068h1.222c.065,0,.123,0,.127-.073l.057.01C25.168,36.408,25.16,36.47,25.152,36.535Z" transform="translate(-23.519 -36.322)" fill="#717171"/>
          </g>
        </g>
        <g transform="translate(11.033 15.238)">
          <g>
            <path d="M25.154,36.373c-.01.069-.078.073-.139.073H23.783c-.055,0-.116,0-.138-.068h-.038a1.366,1.366,0,0,1-.014.191c-.006.064-.018.128-.027.19h.05c.031-.165.052-.219.228-.216h.4v1.276c0,.19-.076.208-.206.209H24v.049c.094,0,.253-.01.39-.01s.282.009.375.01v-.05h-.034c-.113,0-.206-.029-.206-.214V36.542h.4c.159,0,.18.136.184.224l.052-.019c0-.061,0-.124,0-.185s.015-.122.025-.183Z" transform="translate(-23.565 -36.373)" fill="#717171"/>
          </g>
        </g>
        <g  transform="translate(12.248 11.247)">
          <g transform="translate(0 0)">
            <path d="M28.787,30.126a.885.885,0,0,1-.874.752,1.419,1.419,0,0,1-1.3-1.511,1.24,1.24,0,0,1,1.227-1.38.827.827,0,0,1,.931.714h.108l-.043-.623a3.159,3.159,0,0,0-1.028-.231,1.6,1.6,0,0,0-1.649,1.532,1.55,1.55,0,0,0,1.663,1.637,2.436,2.436,0,0,0,.963-.23l.1-.635Z" transform="translate(-26.161 -27.848)" fill="#717171"/>
          </g>
        </g>
        <g transform="translate(9.546 15.229)">
          <g>
            <path d="M22.038,37.994a.134.134,0,0,1-.145-.085c-.03-.07-.059-.157-.088-.242l-.437-1.239c-.008-.02-.014-.041-.021-.06a.031.031,0,0,0-.026-.014.063.063,0,0,0-.023.006,1.218,1.218,0,0,1-.215.1,2.735,2.735,0,0,1-.094.3l-.38,1.087a.2.2,0,0,1-.2.146H20.39v.091H20.4c.085,0,.169-.01.255-.01s.191.005.286.01h.01V38h-.036c-.079,0-.167-.014-.168-.072a1.037,1.037,0,0,1,.052-.182l.073-.24H21.4l.09.268a.66.66,0,0,1,.047.166c0,.046-.081.059-.136.059h-.037v.092h.01c.122,0,.239-.01.355-.01s.221.006.325.01h.01v-.093Zm.015.084h0c-.107,0-.212-.01-.325-.01s-.235.005-.356.01v-.07H21.4c.055,0,.146-.01.146-.069a.765.765,0,0,0-.047-.17l-.093-.275h-.537l-.075.247a.939.939,0,0,0-.052.184c0,.072.1.083.177.083h.027v.071c-.1,0-.192-.009-.287-.009s-.17,0-.255.009v-.071h.014a.214.214,0,0,0,.206-.155L21,36.768a1.906,1.906,0,0,0,.088-.294,1.153,1.153,0,0,0,.214-.1.064.064,0,0,1,.019,0,.016.016,0,0,1,.017.007c.007.019.014.041.022.059l.436,1.239c.029.083.056.17.088.243a.149.149,0,0,0,.156.094h.013Z" transform="translate(-20.39 -36.354)" fill="#717171"/>
          </g>
        </g>
        <g transform="translate(9.567 15.249)">
          <g>
            <path d="M22.064,38.04a.162.162,0,0,1-.166-.1c-.031-.072-.059-.161-.088-.244l-.436-1.239c-.008-.018-.014-.041-.021-.057s0,0,0,0h0a.039.039,0,0,0-.013,0,.932.932,0,0,1-.211.1,2.029,2.029,0,0,1-.088.3l-.379,1.087a.226.226,0,0,1-.215.162h0v.049c.081-.005.163-.01.246-.01s.185.005.275.01v-.049h-.015c-.077,0-.185-.01-.188-.094a.935.935,0,0,1,.053-.188l.078-.254h.551l.1.283a.725.725,0,0,1,.049.174c0,.072-.1.078-.157.08h-.015v.049c.117,0,.232-.01.345-.01s.213.005.316.01V38.04Zm-1.142-.647.227-.691h.02l.226.691Z" transform="translate(-20.435 -36.396)" fill="#717171"/>
          </g>
        </g>
        <g transform="translate(10.069 15.565)">
          <g>
            <path d="M21.731,37.071h-.005l-.22.67h.442Zm0,.025.206.634H21.52Z" transform="translate(-21.506 -37.071)" fill="#717171"/>
          </g>
        </g>
      </g>
      <g id="elo" transform="translate(1139.669 4779.674)">
        <g transform="translate(0 0)">
          <g>
            <path d="M432.558,172.2a3.873,3.873,0,0,1,5.015,2.9l2.652-.541a6.577,6.577,0,0,0-8.525-4.921Z" transform="translate(-427.212 -169.3)" fill="#717171"/>
            <path d="M172.417,275.146l1.794-2.027a3.866,3.866,0,0,1,0-5.791l-1.794-2.029a6.574,6.574,0,0,0,0,9.846" transform="translate(-170.2 -263.652)" fill="#717171"/>
            <path d="M437.573,597.3a3.867,3.867,0,0,1-3.788,3.091,3.816,3.816,0,0,1-1.227-.2l-.858,2.568a6.583,6.583,0,0,0,8.525-4.915Z" transform="translate(-427.212 -589.954)" fill="#717171"/>
          </g>
        </g>
        <path d="M1028.521,376.332a4.7,4.7,0,0,1-.276-.532,4.03,4.03,0,0,1,2.011-5.242,4.037,4.037,0,0,1,3.707.269,3.958,3.958,0,0,1,1.654,2c.05.118.094.244.139.352Zm2.416-4.207a1.994,1.994,0,0,0-1.21,2.12l3.639-1.567A1.933,1.933,0,0,0,1030.937,372.126Zm2.882,3.409s0,0,0,0l-.076-.052a2.142,2.142,0,0,1-.984.824,1.912,1.912,0,0,1-2.109-.213l-.05.076a0,0,0,0,0,0,0l-.923,1.382a4,4,0,0,0,.733.4,4,4,0,0,0,4.816-1.479Z" transform="translate(-1013.189 -366.781)" fill="#717171"/>
        <path d="M1534.8,271v7.679l1.194.484-.678,1.582L1534,280.2a1.492,1.492,0,0,1-.649-.546,1.714,1.714,0,0,1-.254-.951V271Z" transform="translate(-1509.709 -269.255)" fill="#717171"/>
        <g transform="translate(26.355 3.458)">
          <path d="M1707.633,432.405a2.171,2.171,0,0,1,.747-1.639l-1.225-1.366a4.011,4.011,0,0,0,0,6.007l1.224-1.366A2.171,2.171,0,0,1,1707.633,432.405Z" transform="translate(-1705.8 -428.394)" fill="#717171"/>
          <path d="M1866.375,631.937a2.186,2.186,0,0,1-.69-.113l-.585,1.739a4.016,4.016,0,0,0,5.207-2.995l-1.8-.367A2.175,2.175,0,0,1,1866.375,631.937Z" transform="translate(-1862.366 -625.748)" fill="#717171"/>
          <path d="M1866.872,370.8a4.046,4.046,0,0,0-1.272.2l.58,1.74a2.177,2.177,0,0,1,2.822,1.634l1.8-.364A4.014,4.014,0,0,0,1866.872,370.8Z" transform="translate(-1862.857 -370.8)" fill="#717171"/>
        </g>
      </g>
      <g id="hipercard" transform="translate(1188.277 4778.498)">
        <path d="M29.658,16H0c.355-1.7.7-3.464,1.043-5.171.416-2.1.845-4.27,1.3-6.387.056-.262.107-.532.156-.793.094-.5.191-1.013.327-1.492A2.559,2.559,0,0,1,3.3,1.24,2.817,2.817,0,0,1,4.071.583,3.982,3.982,0,0,1,5.087.174,5.851,5.851,0,0,1,6.281,0H36.757c-.566,2.79-1.133,5.574-1.665,8.187l-.565,2.777-.089.437c-.157.775-.32,1.577-.487,2.294a2.546,2.546,0,0,1-1.446,1.835A6.671,6.671,0,0,1,29.658,16ZM10.481,6.429h0c-.25,1.66-.553,3.385-.985,5.594h.8c.037-.228.071-.47.1-.684.069-.488.141-.993.251-1.453.117.45.625.517.918.517a2.176,2.176,0,0,0,.959-.22A2.294,2.294,0,0,0,13.4,9.11a3.319,3.319,0,0,0,.314-1.533,1.219,1.219,0,0,0-.739-1.147,1.571,1.571,0,0,0-.554-.1,2.254,2.254,0,0,0-1.3.433s0,0,0,0A.872.872,0,0,1,11.14,6.6v0a.886.886,0,0,0,.028-.168Zm14.84,1.343c-1.15,0-1.841.361-2.055,1.073a1.534,1.534,0,0,0-.01.888.831.831,0,0,0,.438.543,1.591,1.591,0,0,0,.631.126,1.762,1.762,0,0,0,1.431-.7,2.416,2.416,0,0,0-.056.594h.688a10.225,10.225,0,0,1,.19-1.7v0l.014-.079c.027-.156.062-.317.093-.459a3.779,3.779,0,0,0,.13-.991.631.631,0,0,0-.4-.577,2.116,2.116,0,0,0-.866-.138c-.282,0-.576.024-.86.047h-.007c-.2.016-.4.032-.564.037-.025.143-.06.28-.094.412v0c-.02.077-.037.146-.054.217h0a6.023,6.023,0,0,1,1.332-.211c.442,0,.694.121.747.36a1.09,1.09,0,0,1-.09.589l0,.006C25.736,7.783,25.521,7.773,25.321,7.773Zm6.311-1.434a2.047,2.047,0,0,0-1.49.609,2.987,2.987,0,0,0-.763,2.139,1.366,1.366,0,0,0,.279.929,1.558,1.558,0,0,0,1.118.382,1.574,1.574,0,0,0,.852-.215,1.318,1.318,0,0,0,.279-.278c.017-.021.037-.055.057-.087v0h0c.034-.054.065-.106.082-.106s.006,0,.008.009c-.007.044-.014.089-.021.131l0,.018h0a2.718,2.718,0,0,0-.049.426h.725a32.208,32.208,0,0,1,.61-4.047l0-.019c.094-.48.191-.976.278-1.472h-.8c-.07.613-.164,1.195-.279,1.728A2.955,2.955,0,0,0,31.633,6.339Zm-9.223,0a2.358,2.358,0,0,0-1.746.578,2.822,2.822,0,0,0-.607,1.226,2.77,2.77,0,0,0-.025,1.413c.165.541.68.839,1.45.839a3.635,3.635,0,0,0,1.17-.207c.026-.106.046-.222.064-.333V9.844c.014-.085.029-.172.047-.255a2.413,2.413,0,0,1-1.045.254h0a1.228,1.228,0,0,1-.53-.1.644.644,0,0,1-.338-.356,1.944,1.944,0,0,1-.074-.743,3.447,3.447,0,0,1,.172-.834,1.7,1.7,0,0,1,.367-.653.967.967,0,0,1,.395-.227,1.684,1.684,0,0,1,.5-.068,3.131,3.131,0,0,1,1,.184c.012-.133.033-.259.054-.381.013-.077.028-.164.039-.251A5.57,5.57,0,0,0,22.41,6.335Zm-6.162.011c-.08,0-.164,0-.249.01a2.071,2.071,0,0,0-1.412.576,3.249,3.249,0,0,0-.669,2.342c.1.92.958,1.113,1.656,1.113a5.97,5.97,0,0,0,1.373-.184,3.675,3.675,0,0,1,.067-.4l0-.01c.015-.072.03-.147.043-.223a3.939,3.939,0,0,1-1.327.293,1.227,1.227,0,0,1-.662-.163.822.822,0,0,1-.344-.627,2.518,2.518,0,0,1,.065-.86c.391-.012.808-.019,1.239-.019s.9.006,1.381.019c.014-.1.035-.213.054-.309a1.824,1.824,0,0,0,.02-.936C17.349,6.567,16.909,6.345,16.249,6.345Zm11.478.084h0c-.189,1.314-.42,2.615-.688,3.865h.818a5.673,5.673,0,0,1,.12-1.014h0c.021-.114.045-.244.066-.379a4.957,4.957,0,0,1,.348-1.332.966.966,0,0,1,.9-.627,1.561,1.561,0,0,1,.42.064c.016-.071.029-.147.041-.221v-.01a2.52,2.52,0,0,1,.069-.327.977.977,0,0,0-.438-.108,1.461,1.461,0,0,0-1.085.7,1.776,1.776,0,0,0,.068-.317,1.953,1.953,0,0,1,.062-.3Zm-9.422,0h0c-.15,1.161-.364,2.278-.572,3.358l-.015.08-.082.427h.8c.032-.215.059-.45.087-.7h0A9.032,9.032,0,0,1,18.843,7.8a1.451,1.451,0,0,1,.391-.611,1.043,1.043,0,0,1,.3-.192A.965.965,0,0,1,19.9,6.93a1.213,1.213,0,0,1,.408.075,2.015,2.015,0,0,1,.049-.326,2.529,2.529,0,0,0,.044-.25,1.126,1.126,0,0,0-.422-.086,1.352,1.352,0,0,0-1.1.736,3.481,3.481,0,0,0,.08-.38V6.694c.016-.1.031-.182.05-.265Zm-9.329,0c-.022,0-.02.031-.019.056-.187,1.4-.443,2.713-.669,3.81h.8c.216-1.489.441-2.753.688-3.866ZM5.944,7.576c.446,0,.811.014,1.117.043C7,8,6.926,8.374,6.856,8.74l0,.021c-.094.5-.192,1.01-.274,1.534h.911c.258-1.623.575-3.537.966-5.426h-.93c-.117.761-.256,1.542-.368,2.17l0,.022-.48.007H6.652c-.282,0-.573.009-.859.009-.434,0-.787-.011-1.109-.035.076-.357.142-.73.206-1.091V5.945c.063-.356.128-.724.2-1.076H4.2c-.1.562-.2,1.143-.286,1.656v.008c-.212,1.243-.432,2.529-.68,3.762h.911c.02-.128.041-.262.062-.4.119-.764.241-1.555.4-2.294l.172,0h.048C5.192,7.585,5.568,7.576,5.944,7.576ZM9.7,4.8a.9.9,0,0,0-.144.013.456.456,0,0,0-.316.167c-.107.146-.19.556-.037.706a.369.369,0,0,0,.258.085.69.69,0,0,0,.337-.085.764.764,0,0,0,.235-.51.364.364,0,0,0-.1-.308A.334.334,0,0,0,9.7,4.8Zm1.868,5.076a.887.887,0,0,1-.518-.149.645.645,0,0,1-.268-.473,2.267,2.267,0,0,1,.087-.73V8.518c.021-.094.044-.191.061-.286.025-.139.046-.274.07-.424.031-.2.061-.381.1-.561a1.208,1.208,0,0,1,.911-.377,1.009,1.009,0,0,1,.566.155.7.7,0,0,1,.307.5,2.881,2.881,0,0,1-.1,1.16,2.21,2.21,0,0,1-.443.884A1.092,1.092,0,0,1,11.564,9.876Zm19.425-.008a.738.738,0,0,1-.586-.233.984.984,0,0,1-.205-.64A2.952,2.952,0,0,1,30.5,7.6a1.279,1.279,0,0,1,.963-.742,1.8,1.8,0,0,1,.2-.012,2.281,2.281,0,0,1,.782.16c-.06.243-.1.514-.145.8v0A5.358,5.358,0,0,1,31.968,9.2a1.221,1.221,0,0,1-.361.477.978.978,0,0,1-.592.193Zm-6.365-.019h0a.685.685,0,0,1-.522-.2.667.667,0,0,1-.129-.545.871.871,0,0,1,.46-.689,1.952,1.952,0,0,1,.949-.2,4.2,4.2,0,0,1,.505.033l-.007.042a2.3,2.3,0,0,1-.458,1.259A1.208,1.208,0,0,1,24.623,9.849ZM16.762,7.768H14.885a1.089,1.089,0,0,1,.323-.617,1.1,1.1,0,0,1,.737-.312h.072a.806.806,0,0,1,.665.242.789.789,0,0,1,.081.689Z" transform="translate(0 0.002)" fill="#717171"/>
      </g>
    </g>
  </g>
</svg>
