<svg xmlns="http://www.w3.org/2000/svg" xmlns:xlink="http://www.w3.org/1999/xlink" width="40.018" height="34.951" viewBox="0 0 40.018 34.951">
  <defs>
    <filter id="Uni達o_5" x="0" y="0" width="40.018" height="34.951" filterUnits="userSpaceOnUse">
      <feOffset dy="6" input="SourceAlpha"/>
      <feGaussianBlur stdDeviation="3" result="blur"/>
      <feFlood flood-opacity="0.161"/>
      <feComposite operator="in" in2="blur"/>
      <feComposite in="SourceGraphic"/>
    </filter>
  </defs>
  <g id="icon-truck" transform="translate(9 3)">
    <g transform="matrix(1, 0, 0, 1, -9, -3)" filter="url(#Uni達o_5)">
      <path id="Uni達o_5-2" data-name="Uni達o 5" d="M11481.737,18635.971a2.453,2.453,0,1,1,2.455,2.455A2.45,2.45,0,0,1,11481.737,18635.971Zm1.384,0a1.069,1.069,0,1,0,1.071-1.072A1.069,1.069,0,0,0,11483.121,18635.971Zm-14.767,0a2.453,2.453,0,1,1,2.451,2.455A2.45,2.45,0,0,1,11468.354,18635.971Zm1.385,0a1.069,1.069,0,1,0,1.066-1.072A1.07,1.07,0,0,0,11469.739,18635.971Zm17.719,0a3.268,3.268,0,0,0-6.535,0h-6.848a3.268,3.268,0,0,0-6.535,0h-.5a.533.533,0,0,1-.529-.529V18622a.531.531,0,0,1,.529-.527h12.433a.53.53,0,0,1,.528.527v2.77h3.958a.6.6,0,0,1,.458.205l3.957,4.5a.619.619,0,0,1,.154.4v5.482a.611.611,0,0,1-.612.609Zm-4.463-6.7h3.574l-2.882-3.275H11483Z" transform="translate(-11457.52 -18618.47)" fill="#006ea8"/>
    </g>
  </g>
</svg>
