<svg width="34" height="13" viewBox="0 0 34 13" fill="none" xmlns="http://www.w3.org/2000/svg">
<path d="M5.82968 2.958C6.19363 2.83641 6.58273 2.77107 6.98788 2.77107C8.75458 2.77107 10.2296 4.02592 10.5674 5.69386L13.0718 5.18301C12.4972 2.34857 9.99207 0.215332 6.98788 0.215332C6.2995 0.215332 5.63821 0.327523 5.01953 0.534232L5.82968 2.958Z" fill="#656565"/>
<path d="M2.87476 11.0744L4.56832 9.15966C3.81233 8.48992 3.33536 7.51247 3.33536 6.42348C3.33536 5.33448 3.81169 4.35832 4.56719 3.6894L2.8733 1.77454C1.58944 2.91185 0.779297 4.5733 0.779297 6.42348C0.779297 8.27365 1.58976 9.93689 2.87476 11.0744Z" fill="#656565"/>
<path d="M10.5673 7.15637C10.2281 8.82349 8.75452 10.0759 6.98834 10.0759C6.58304 10.0759 6.19278 10.0106 5.82898 9.88834L5.0177 12.3132C5.63654 12.5198 6.29913 12.6317 6.98834 12.6317C9.98959 12.6317 12.4943 10.502 13.0713 7.66998L10.5673 7.15637Z" fill="#656565"/>
<path d="M15.2623 9.24041C15.1802 9.10746 15.0689 8.89492 15.0016 8.73847C14.605 7.81775 14.586 6.86495 14.921 5.95023C15.2892 4.94718 15.9926 4.17919 16.9015 3.78814C18.0442 3.29641 19.3079 3.39336 20.4031 4.04316C21.0988 4.44231 21.5919 5.05855 21.9664 5.92997C22.0141 6.04151 22.0561 6.16068 22.097 6.26185L15.2623 9.24041ZM17.5445 5.26624C16.733 5.61496 16.3148 6.37613 16.4007 7.26864L19.8381 5.78925C19.247 5.0947 18.4779 4.86449 17.5445 5.26624ZM20.2669 8.48507C20.2661 8.48571 20.2656 8.48636 20.265 8.487L20.1938 8.43903C19.9887 8.77187 19.6686 9.04148 19.2648 9.21657C18.4965 9.55071 17.7844 9.46479 17.2731 9.01635L17.2261 9.08785C17.2261 9.08785 17.2254 9.08639 17.2246 9.08639L16.3525 10.391C16.569 10.5415 16.8015 10.6689 17.0457 10.7707C18.009 11.1708 18.9945 11.1523 19.9655 10.73C20.6679 10.4257 21.2189 9.96154 21.5955 9.37334L20.2669 8.48507Z" fill="#656565"/>
<path d="M24.4861 1.8667V9.11985L25.6136 9.57688L24.9729 11.072L23.7281 10.5537C23.4487 10.4327 23.2585 10.2476 23.1146 10.0386C22.9769 9.82558 22.874 9.53327 22.874 9.13963V1.8667H24.4861Z" fill="#656565"/>
<path d="M27.4076 7.27209C27.4083 6.65439 27.6809 6.10056 28.1126 5.72412L26.9556 4.43408C26.1709 5.12766 25.6768 6.14108 25.6758 7.27029C25.6744 8.39984 26.168 9.4144 26.9519 10.1098L28.1075 8.81842C27.6781 8.44037 27.4071 7.88834 27.4076 7.27209Z" fill="#656565"/>
<path d="M29.4631 9.33078C29.2354 9.33014 29.016 9.29251 28.8114 9.22443L28.2588 10.8672C28.6365 10.994 29.0409 11.0631 29.4613 11.0638C31.2932 11.0655 32.8229 9.76578 33.1772 8.03784L31.479 7.69104C31.2859 8.62799 30.4567 9.3316 29.4631 9.33078Z" fill="#656565"/>
<path d="M29.468 3.48438C29.0481 3.48389 28.6437 3.55214 28.2666 3.6778L28.8143 5.32207C29.0195 5.25429 29.2389 5.21685 29.4664 5.21685C30.4622 5.21782 31.2921 5.92581 31.4806 6.86501L33.1791 6.5205C32.8297 4.79029 31.3014 3.48567 29.468 3.48438Z" fill="#656565"/>
</svg>
