<svg width="27" height="17" viewBox="0 0 27 17" fill="none" xmlns="http://www.w3.org/2000/svg">
<path d="M13.2816 14.7945C11.9043 15.8775 10.167 16.5235 8.27871 16.5235C3.80481 16.5235 0.178711 12.8974 0.178711 8.42349C0.178711 3.94959 3.80481 0.323486 8.27871 0.323486C10.167 0.323486 11.9043 0.969489 13.2816 2.05247C14.6589 0.969962 16.3948 0.323486 18.2786 0.323486C22.7453 0.323486 26.3786 3.95679 26.3786 8.42349C26.3786 12.8902 22.7453 16.5235 18.2786 16.5235C16.3948 16.5235 14.6589 15.877 13.2816 14.7945ZM18.2786 14.5237C21.6428 14.5237 24.3788 11.7868 24.3788 8.42349C24.3788 5.06019 21.6428 2.32329 18.2786 2.32329C16.9431 2.32329 15.7063 2.75486 14.7005 3.48584C15.7527 4.85257 16.3787 6.565 16.3787 8.42349C16.3787 10.282 15.7527 11.9944 14.7005 13.3611C15.7063 14.0921 16.9431 14.5237 18.2786 14.5237Z" fill="#656565"/>
</svg>
