<svg width="34" height="9" viewBox="0 0 34 9" fill="none" xmlns="http://www.w3.org/2000/svg">
<path d="M14.5525 8.77741H13.3598C13.2071 8.77741 13.1231 8.6378 13.2316 8.48431L14.524 6.64817L13.2063 2.7898C13.1369 2.58898 13.2259 2.42572 13.4447 2.42572H14.506C14.7093 2.42572 14.8204 2.50735 14.8645 2.65593L15.6197 5.11088L17.3096 2.66166C17.4207 2.50081 17.4982 2.42402 17.6917 2.42402H18.8208C19.0257 2.42402 19.0845 2.61184 18.9596 2.7906L14.9069 8.60348C14.8403 8.71374 14.7213 8.77983 14.5945 8.77982C14.5806 8.77982 14.5666 8.77903 14.5525 8.77741ZM24.7472 5.10273C24.864 3.53192 25.9522 2.30645 27.5663 2.27302C28.261 2.25664 28.7591 2.46407 28.9542 2.92617C29.0097 3.05674 29.0693 3.03389 29.0913 2.90413L29.1338 2.6551C29.1607 2.4967 29.2113 2.43873 29.3151 2.43873H30.4646C30.6189 2.43873 30.6687 2.53836 30.6361 2.74167L29.9911 6.78939C29.9478 7.06215 29.862 7.13313 29.6857 7.13313H28.6391C28.4986 7.13313 28.439 7.0531 28.4586 6.90211L28.497 6.61306C28.5125 6.49226 28.4031 6.54288 28.2954 6.64083L28.3003 6.64325C27.8806 7.02702 27.5083 7.27193 26.6755 7.27193C25.5277 7.27193 24.6574 6.31752 24.7472 5.10273ZM26.3408 4.78434C26.2404 5.46357 26.7246 6.01788 27.4193 6.01788C28.1141 6.01788 28.764 5.46357 28.8644 4.78434C28.9648 4.10504 28.4807 3.55073 27.7859 3.55073C27.0911 3.55073 26.4413 4.10504 26.3408 4.78434ZM6.56724 5.10273C6.68397 3.53192 7.77228 2.30645 9.38626 2.27302C10.0811 2.25664 10.5791 2.46407 10.7742 2.92617C10.8297 3.05674 10.8893 3.03389 10.9114 2.90413L10.9538 2.6551C10.9807 2.4967 11.0314 2.43873 11.135 2.43873H12.2862C12.4405 2.43873 12.4903 2.53836 12.4576 2.74167L11.8127 6.78939C11.7694 7.06215 11.6837 7.13313 11.5073 7.13313H10.4607C10.3203 7.13313 10.2607 7.0531 10.2803 6.90211L10.3186 6.61306C10.3342 6.49226 10.2247 6.54288 10.117 6.64083L10.1202 6.64325C9.70061 7.02702 9.32828 7.27193 8.49557 7.27193C7.34772 7.27193 6.47746 6.31752 6.56724 5.10273ZM8.1617 4.78434C8.06126 5.46357 8.54539 6.01788 9.24012 6.01788C9.93574 6.01788 10.5848 5.46357 10.6852 4.78434C10.7856 4.10504 10.3015 3.55073 9.6067 3.55073C8.91197 3.55073 8.26206 4.10504 8.1617 4.78434ZM32.2468 7.13967H31.0385C30.996 7.14157 30.9548 7.12439 30.9262 7.09279C30.8976 7.06119 30.8846 7.01858 30.8907 6.9764L31.9521 0.252391C31.973 0.157911 32.0562 0.0902393 32.1529 0.0891299H33.3612C33.4037 0.087207 33.4449 0.104328 33.4735 0.13592C33.5021 0.167537 33.5151 0.210211 33.509 0.252391L32.4476 6.9764C32.4274 7.07156 32.344 7.13995 32.2467 7.14129L32.2468 7.13967ZM19.2201 7.11843C19.0322 7.11843 18.9669 6.99844 19.0086 6.72981L19.9825 0.488329C20.0307 0.181355 20.1459 0.0670166 20.3557 0.0670166H23.1756V0.068693C24.2426 0.068693 25.2272 0.647485 25.0925 2.09014C24.9293 3.80459 24.0108 4.75327 22.5617 4.75738H21.2962C21.1142 4.75738 21.0259 4.90594 20.9786 5.21051L20.7337 6.76736C20.697 7.00249 20.5761 7.11843 20.3981 7.11843H19.2201ZM22.4694 1.42965L21.5664 1.4337L21.257 3.40943H22.2163C22.8163 3.38658 23.2147 2.97106 23.2548 2.2216C23.2792 1.76038 22.9688 1.42965 22.4748 1.42964C22.473 1.42964 22.4712 1.42964 22.4694 1.42965ZM1.04093 7.11843C0.853105 7.11843 0.787776 6.99844 0.829438 6.72981L1.80176 0.489956C1.84998 0.18297 1.96506 0.068693 2.1749 0.068693H4.99483H4.99722C6.06428 0.068693 7.04888 0.647485 6.9142 2.09014C6.75093 3.80459 5.83247 4.75327 4.38332 4.75738H3.11702C2.93494 4.75738 2.84676 4.90594 2.79945 5.21051L2.55455 6.76736C2.51782 7.00249 2.39695 7.11843 2.21898 7.11843H1.04093ZM4.29105 1.42965L3.38808 1.4337L3.07866 3.40943H4.03799C4.63801 3.38658 5.03647 2.97106 5.07646 2.2216C5.10081 1.76038 4.79051 1.42965 4.29647 1.42964C4.29465 1.42964 4.29287 1.42964 4.29105 1.42965Z" fill="#656565"/>
</svg>
