<svg width="34" height="11" viewBox="0 0 34 11" fill="none" xmlns="http://www.w3.org/2000/svg">
<path d="M24.6698 0.707906C24.1308 0.506952 23.2851 0.288208 22.2385 0.288208C19.5623 0.288208 17.671 1.64045 17.6595 3.57568C17.6375 4.99805 19.0002 5.79977 20.0301 6.27912C21.0883 6.76999 21.442 7.07561 21.4368 7.51101C21.4316 8.1819 20.5911 8.48123 19.8176 8.48123C18.7428 8.48123 18.1598 8.33471 17.2607 7.95792L16.9269 7.79988L16.5459 10.0355C17.2 10.3024 18.3722 10.5368 19.5822 10.5588C22.4332 10.5588 24.292 9.21806 24.3129 7.15097C24.3349 6.01746 23.6054 5.15713 22.0512 4.44752C21.1134 3.99014 20.5262 3.67824 20.5262 3.20935C20.5262 2.79489 21.0276 2.35949 22.0742 2.35949C22.9732 2.34274 23.6065 2.53951 24.1015 2.73523L24.3579 2.84931L24.7337 0.696393L24.6698 0.707906ZM31.6268 0.473461H29.5335C28.8794 0.473461 28.3937 0.648249 28.1049 1.29716L24.0816 10.4165H26.9274L27.501 8.92291L30.9726 8.92814C31.0595 9.27667 31.3044 10.4154 31.3044 10.4154H33.8174L31.6268 0.473461ZM13.8058 0.391824H16.5155L14.82 10.339H12.1103L13.8058 0.38659V0.391824ZM6.91583 5.86989L7.19319 7.25458L9.84744 0.473461H12.7204L8.446 10.3997H5.58556L3.24111 1.99422C3.19192 1.84769 3.13226 1.74826 2.98468 1.66243C2.19448 1.24797 1.30589 0.909907 0.325195 0.675462L0.357641 0.467181H4.72942C5.31867 0.489161 5.79803 0.675462 5.9613 1.30763L6.91583 5.87513L6.91583 5.86989ZM28.2734 6.88931L29.3587 4.10422C29.342 4.13039 29.5817 3.53172 29.7177 3.15493L29.903 4.01003L30.531 6.88303H28.2734V6.88931Z" fill="#656565"/>
</svg>
