<svg width="26" height="26" viewBox="0 0 26 26" fill="none" xmlns="http://www.w3.org/2000/svg">
<rect x="26" y="26" width="26" height="26" rx="13" transform="rotate(-180 26 26)" fill="white"/>
<path d="M16.5809 20.9979C16.9119 20.9985 17.2327 20.9057 17.4875 20.7357C17.631 20.6399 17.7495 20.5224 17.8365 20.3897C17.9234 20.257 17.9769 20.1118 17.994 19.9625C18.0111 19.8131 17.9915 19.6625 17.9361 19.5193C17.8808 19.3761 17.791 19.243 17.6717 19.1278L11.3254 13.0156L17.445 6.89208C17.5627 6.77543 17.6506 6.64122 17.7036 6.49715C17.7566 6.35308 17.7738 6.202 17.754 6.05259C17.7343 5.90317 17.678 5.75837 17.5885 5.62651C17.4991 5.49464 17.3781 5.37832 17.2326 5.28421C17.086 5.1804 16.9143 5.1021 16.7284 5.05422C16.5425 5.00633 16.3462 4.98991 16.152 5.00597C15.9578 5.02203 15.7698 5.07023 15.5999 5.14755C15.4299 5.22487 15.2816 5.32963 15.1643 5.45526L8.32226 12.2972C8.1139 12.5013 8 12.7572 8 13.0213C8 13.2855 8.1139 13.5414 8.32226 13.7454L15.4052 20.5874C15.5473 20.7254 15.7278 20.8345 15.9321 20.9058C16.1364 20.9772 16.3587 21.0087 16.5809 20.9979Z" fill="#303030"/>
</svg>
