<svg width="26" height="26" viewBox="0 0 26 26" fill="none" xmlns="http://www.w3.org/2000/svg">
<rect width="26" height="26" rx="13" fill="white"/>
<path d="M9.41908 5.00206C9.08809 5.00154 8.76732 5.09434 8.51246 5.26434C8.36902 5.36007 8.25045 5.47764 8.16354 5.61031C8.07663 5.74298 8.02309 5.88815 8.00599 6.03751C7.98888 6.18687 8.00854 6.33747 8.06385 6.4807C8.11916 6.62393 8.20903 6.75697 8.32831 6.8722L14.6746 12.9844L8.55496 19.1079C8.43729 19.2246 8.34942 19.3588 8.29639 19.5028C8.24337 19.6469 8.22624 19.798 8.24598 19.9474C8.26573 20.0968 8.32196 20.2416 8.41145 20.3735C8.50094 20.5054 8.62193 20.6217 8.76745 20.7158C8.91402 20.8196 9.08566 20.8979 9.2716 20.9458C9.45754 20.9937 9.65378 21.0101 9.84798 20.994C10.0422 20.978 10.2302 20.9298 10.4001 20.8525C10.5701 20.7751 10.7184 20.6704 10.8357 20.5447L17.6777 13.7028C17.8861 13.4987 18 13.2428 18 12.9787C18 12.7145 17.8861 12.4586 17.6777 12.2546L10.5948 5.41258C10.4527 5.27458 10.2722 5.16549 10.0679 5.09417C9.86364 5.02284 9.64135 4.99129 9.41908 5.00206Z" fill="#303030"/>
</svg>
