<svg width="27" height="19" viewBox="0 0 27 19" fill="none" xmlns="http://www.w3.org/2000/svg">
<path d="M2.48291 18.8469C1.11328 18.8469 0 17.7335 0 16.3638V2.48303C0 1.11414 1.11328 0 2.48291 0H24.2964C25.6653 0 26.7793 1.11414 26.7793 2.48303V16.3638C26.7793 17.7335 25.6653 18.8469 24.2964 18.8469H2.48291ZM1.57837 2.80701V16.0398C1.57837 16.8201 2.21216 17.4536 2.99243 17.4536H23.7869C24.5662 17.4536 25.2007 16.8201 25.2007 16.0398V2.80701C25.2007 2.02771 24.5662 1.39319 23.7869 1.39319H2.99243C2.21216 1.39319 1.57837 2.02771 1.57837 2.80701ZM22.9309 12.15L21.5684 10.377L20.2048 12.15H15.8418V6.6969H20.3418L21.4324 8.33301L22.7959 6.6969H24.2954L22.2515 9.42297L24.2954 12.15H22.9309ZM16.9353 11.0592H19.5244L20.7522 9.4248L19.6614 7.92444H16.9353V8.87756H19.3887V9.96838H16.9353V11.0592ZM13.2532 12.15V8.19714L11.7529 12.15H10.6621L9.16187 8.06042V12.15H6.84521L6.4375 10.9232H4.11914L3.70972 12.15H2.48218L4.52686 6.6969H6.0271L7.93604 11.8773V6.6969H9.84399L11.2075 10.377L12.571 6.6969H14.344V12.15H13.2532ZM4.52686 9.69568H5.89136L5.20898 7.78772L4.52686 9.69568Z" fill="#656565"/>
</svg>
