<svg width="31" height="19" viewBox="0 0 31 19" fill="none" xmlns="http://www.w3.org/2000/svg">
<path d="M9.71924 18.764C4.56934 18.764 0.378906 14.5743 0.378906 9.42334C0.378906 4.27332 4.56934 0.0827637 9.71924 0.0827637H20.9851C26.1353 0.0827637 30.3257 4.27332 30.3257 9.42334C30.3257 14.5743 26.1353 18.764 20.9851 18.764H9.71924ZM0.916748 9.4259C0.916748 14.2792 4.86548 18.2277 9.71924 18.2277C14.5725 18.2277 18.521 14.2792 18.521 9.4259C18.521 4.57275 14.5725 0.623413 9.71924 0.623413C4.86548 0.623413 0.916748 4.57275 0.916748 9.4259ZM11.7854 4.09045C13.9275 4.92029 15.4468 6.99341 15.4468 9.4259C15.4468 11.8586 13.9255 13.9335 11.7854 14.7615V4.09045ZM3.9939 9.4259V9.42334C3.9939 6.99072 5.51294 4.91589 7.65405 4.08789V14.7615C5.51562 13.9335 3.9939 11.8605 3.9939 9.4259Z" fill="#656565"/>
</svg>
