<svg width="36" height="16" viewBox="0 0 36 16" fill="none" xmlns="http://www.w3.org/2000/svg">
<path d="M15.2761 15.9794L0.510742 15.9845V15.9496C0.510742 15.9304 0.534286 15.8059 0.56308 15.6728C0.59198 15.5399 0.636665 15.3283 0.662628 15.2027C0.688477 15.0771 0.732788 14.8638 0.760925 14.7285C0.830292 14.3979 0.898849 14.0672 0.966545 13.7363C0.993141 13.6058 1.03751 13.3923 1.06528 13.2621C1.1006 13.0953 1.13555 12.9284 1.17023 12.7615C1.20026 12.6165 1.24585 12.3953 1.27159 12.2696C1.29728 12.144 1.33833 11.9505 1.36252 11.8394C1.38676 11.7284 1.41769 11.5782 1.43118 11.5058C1.44477 11.4333 1.4886 11.2198 1.52864 11.0315C1.56236 10.8737 1.59511 10.7157 1.62683 10.5574C1.64081 10.4849 1.68517 10.2715 1.72547 10.0831C1.76572 9.89487 1.80992 9.6814 1.82368 9.60898C1.83743 9.53658 1.88195 9.32304 1.92251 9.13483C1.96308 8.94638 2.00691 8.73688 2.01981 8.66939C2.03282 8.60175 2.06825 8.42787 2.09869 8.283C2.12898 8.13806 2.18657 7.86536 2.22644 7.67703C2.26643 7.48865 2.3346 7.16069 2.378 6.94814C2.42156 6.73561 2.47359 6.48274 2.49359 6.38614C2.55257 6.10208 2.61198 5.81822 2.67197 5.53438C2.70151 5.39432 2.74962 5.1651 2.77889 5.02495C2.80811 4.88493 2.85318 4.6675 2.87903 4.54201C2.90477 4.4164 2.94887 4.20699 2.97685 4.07661C3.00489 3.94614 3.05318 3.71693 3.08405 3.5672C3.11498 3.41751 3.16678 3.18831 3.19917 3.05788C3.23148 2.92746 3.2772 2.76942 3.30085 2.70663C3.32439 2.64381 3.38952 2.50772 3.4455 2.40417L3.54723 2.2159L3.63976 2.09677C3.69054 2.03131 3.78138 1.92792 3.84152 1.86691C3.90168 1.80591 4.0031 1.71417 4.06704 1.66301C4.13084 1.6118 4.22337 1.54271 4.2725 1.50954C4.32162 1.4763 4.41812 1.41812 4.48699 1.38017C4.55576 1.34233 4.65236 1.29279 4.70149 1.27003C4.75062 1.24728 4.85112 1.20566 4.92481 1.17761C4.99845 1.14973 5.13932 1.10281 5.23752 1.07343C5.33577 1.0441 5.52036 0.999832 5.64762 0.97522C5.77477 0.950439 5.97579 0.917419 6.09436 0.901794L6.30982 0.873322L21.0842 0.867859L35.8586 0.862305V0.897186C35.8586 0.916351 35.835 1.04083 35.8061 1.17387C35.7695 1.34213 35.7337 1.5106 35.6985 1.67912C35.6683 1.82405 35.6242 2.03355 35.6005 2.14456C35.567 2.3026 35.5338 2.46063 35.501 2.61877C35.4698 2.76857 35.422 2.99783 35.3947 3.1281C35.3672 3.25858 35.3229 3.47198 35.2961 3.60242C35.2693 3.73277 35.2247 3.94614 35.197 4.07658C35.1647 4.22873 35.1329 4.38092 35.1016 4.53323C35.0767 4.65396 35.0317 4.87125 35.0018 5.01617C34.9717 5.16104 34.9234 5.39026 34.8944 5.52554C34.8654 5.66072 34.8215 5.87018 34.7965 5.99092C34.7714 6.1116 34.7264 6.32899 34.6966 6.47386C34.6665 6.61877 34.6184 6.84795 34.5894 6.98323C34.5605 7.11852 34.5174 7.32397 34.4935 7.4399C34.4274 7.76196 34.3608 8.08397 34.2939 8.40587C34.2696 8.52174 34.2266 8.72736 34.198 8.86243C34.1615 9.03517 34.1253 9.20782 34.0894 9.38069C34.0582 9.53047 34.0136 9.74362 33.9903 9.85484C33.9669 9.96588 33.9232 10.1753 33.8932 10.3202C33.858 10.49 33.8226 10.6599 33.7869 10.8296C33.7585 10.9648 33.714 11.1783 33.6878 11.3039C33.662 11.4294 33.6165 11.6467 33.5874 11.7867C33.5581 11.9267 33.5103 12.156 33.4811 12.296C33.4519 12.4362 33.4083 12.6456 33.384 12.7616C33.3509 12.9196 33.3182 13.0776 33.2854 13.2357C33.2504 13.405 33.2142 13.5742 33.1772 13.7431L33.1234 13.987L33.0593 14.1557C33.0241 14.2486 32.9711 14.372 32.9415 14.4299C32.9119 14.4879 32.8518 14.5902 32.8079 14.6572C32.7638 14.7242 32.7026 14.81 32.6716 14.848C32.6407 14.886 32.5477 14.984 32.4647 15.0657L32.3141 15.2143L32.169 15.3156C32.0893 15.3713 32.0033 15.428 31.9781 15.4416C31.9527 15.4551 31.8566 15.5033 31.7645 15.5487C31.6722 15.5941 31.542 15.6518 31.4752 15.6769C31.4081 15.7023 31.2755 15.7452 31.1802 15.7724C31.085 15.7998 30.983 15.8265 30.9535 15.832C30.9239 15.8376 30.8217 15.8583 30.7261 15.8783C30.6305 15.8981 30.4375 15.9279 30.2972 15.9443L30.0421 15.9741L15.2761 15.9794ZM10.0227 12.2257H10.407L10.4178 12.1979C10.4238 12.1825 10.4287 12.1467 10.4287 12.1182C10.4287 12.0894 10.4414 11.9854 10.4569 11.8868C10.4723 11.7882 10.5086 11.5613 10.5376 11.3826C10.5665 11.2039 10.6098 10.9353 10.6338 10.7856C10.6565 10.6438 10.6783 10.5017 10.6989 10.3596C10.7107 10.2751 10.7251 10.2059 10.7309 10.2059C10.7367 10.2059 10.7616 10.2433 10.7862 10.289L10.8307 10.372L10.9298 10.4701L11.029 10.5681L11.1508 10.6161L11.2728 10.6641L11.4181 10.6826L11.5635 10.7011L11.7479 10.69L11.9324 10.6789L12.1321 10.6281L12.3319 10.5773L12.439 10.5293C12.4981 10.5028 12.6026 10.4451 12.6714 10.401L12.7965 10.321L12.9132 10.2063C12.9773 10.1435 13.0678 10.0424 13.1142 9.98195C13.1607 9.92142 13.1986 9.86751 13.1986 9.86212C13.1986 9.8567 13.2215 9.81931 13.2493 9.77888C13.2772 9.73854 13.3342 9.62637 13.3761 9.52983C13.4179 9.43318 13.4832 9.25935 13.5214 9.14343L13.5907 8.93269L13.6265 8.75015C13.6462 8.64969 13.6715 8.4838 13.6828 8.38126L13.7033 8.19502L13.6914 8.03697L13.6796 7.87894L13.6423 7.72079L13.6051 7.56276L13.5447 7.44444L13.4843 7.326L13.3677 7.20457L13.2511 7.08304L13.1132 7.01299L12.9752 6.94283L12.8233 6.90707L12.6714 6.87138L12.5194 6.86046L12.3677 6.84949L12.1984 6.86859L12.0292 6.8876L11.8911 6.92227L11.753 6.95685L11.633 7.01154C11.567 7.04146 11.4709 7.09245 11.4197 7.12479C11.3683 7.15706 11.3153 7.1942 11.3019 7.20735C11.2885 7.22041 11.2564 7.24477 11.2306 7.26129L11.1837 7.29149L11.2165 7.13715C11.2345 7.05232 11.2496 6.97311 11.25 6.96095L11.2507 6.93901H10.5955L10.538 7.29469C10.5064 7.4904 10.4565 7.79262 10.4271 7.96654C10.3624 8.35011 10.2968 8.73355 10.2305 9.11688C10.2013 9.28589 10.153 9.5547 10.1231 9.71402C10.0933 9.87344 10.0496 10.1066 10.026 10.2323C10.0025 10.3578 9.95801 10.5949 9.92746 10.7591C9.89135 10.9523 9.85483 11.1456 9.81797 11.3386C9.78313 11.5203 9.74755 11.7018 9.71109 11.8831C9.68187 12.028 9.65368 12.1644 9.64821 12.1861L9.63842 12.2256L10.0227 12.2257ZM11.6769 10.1951L11.5277 10.2039L11.4302 10.187L11.3327 10.1702L11.2336 10.1257L11.1345 10.0812L11.0653 10.0163L10.9962 9.95139L10.9562 9.86357C10.9342 9.81523 10.906 9.73314 10.8936 9.68112L10.8707 9.58656L10.8799 9.43521L10.8891 9.28392L10.9351 9.04672C10.9698 8.86554 11.0035 8.68405 11.0361 8.50235C11.0663 8.3333 11.1122 8.08551 11.1379 7.95189L11.1847 7.7088L11.2872 7.625C11.3435 7.57898 11.4328 7.51717 11.4856 7.48785L11.5815 7.43437L11.7065 7.39633L11.8316 7.35823L11.9925 7.34897L12.1533 7.33965L12.2842 7.36716L12.4152 7.39456L12.5077 7.43642L12.6001 7.47827L12.6776 7.55484L12.7551 7.63142L12.7968 7.71251C12.82 7.75708 12.8521 7.84444 12.8686 7.90645L12.8986 8.01932L12.8895 8.3531L12.8803 8.68678L12.8344 8.88403C12.8092 8.99252 12.7611 9.15852 12.7277 9.25288L12.6668 9.4245L12.5921 9.56332C12.5511 9.63969 12.4879 9.74298 12.4516 9.79277C12.4153 9.84258 12.3575 9.90712 12.323 9.93607C12.2815 9.97092 12.2387 10.0046 12.1951 10.037L12.1295 10.085L11.9779 10.1356L11.8263 10.1863L11.6769 10.1951ZM15.3877 10.6778L15.5843 10.6802L15.7809 10.6625C15.8891 10.6528 16.0659 10.6325 16.1741 10.6176C16.2822 10.6027 16.4689 10.5691 16.5891 10.5432L16.8075 10.4959L16.8185 10.4168C16.8244 10.3733 16.849 10.2437 16.873 10.1287L16.9167 9.91997L16.9069 9.91049L16.8973 9.90108L16.8305 9.93269C16.7937 9.95015 16.6793 9.99179 16.5762 10.0252L16.3888 10.0859L16.192 10.1234L15.9954 10.1608L15.6825 10.1615L15.3698 10.162L15.2625 10.1283C15.2035 10.1099 15.1169 10.0761 15.0698 10.0532L14.9843 10.0116L14.9137 9.94891L14.8431 9.8862L14.7881 9.79158L14.733 9.69685L14.6984 9.57831L14.6639 9.45956L14.6636 9.23993L14.6634 9.02029L14.694 8.82442L14.7248 8.62856L14.9936 8.61624L15.2624 8.60388L16.2565 8.6102L17.2505 8.61646L17.2805 8.49129C17.2971 8.42245 17.3224 8.2802 17.3367 8.17516L17.3627 7.98416L17.3634 7.82355L17.3639 7.66289L17.3356 7.54285L17.3073 7.42297L17.2605 7.34355C17.2348 7.29988 17.1894 7.23657 17.1597 7.20282C17.13 7.16914 17.077 7.12163 17.0419 7.09727C17.0068 7.07292 16.9379 7.03198 16.8888 7.00629L16.7993 6.95958L16.6432 6.92265L16.4872 6.88577L16.2948 6.86769L16.1024 6.84955L15.9236 6.86095L15.745 6.87245L15.5305 6.9129L15.3161 6.95343L15.182 7.00603C15.1083 7.03493 14.9957 7.08775 14.9318 7.1234C14.868 7.15898 14.7795 7.21693 14.7353 7.25215C14.691 7.28737 14.6144 7.35587 14.5651 7.40436C14.5157 7.45284 14.4426 7.53979 14.4028 7.59782C14.3629 7.65582 14.3018 7.75847 14.267 7.82616C14.2321 7.89381 14.1867 7.9886 14.166 8.03693C14.1454 8.08519 14.1079 8.18399 14.0827 8.25645C14.0574 8.32892 14.0178 8.46725 13.9946 8.56384C13.9673 8.68094 13.9437 8.79874 13.9238 8.91716L13.8954 9.09502L13.8957 9.35632L13.896 9.6176L13.9231 9.7318C13.938 9.79457 13.9666 9.88945 13.9866 9.9426C14.0065 9.99564 14.0435 10.0748 14.0687 10.1181C14.0939 10.1616 14.1476 10.2317 14.1881 10.2737C14.2287 10.3158 14.302 10.3796 14.3512 10.4156C14.4003 10.4514 14.4878 10.502 14.5455 10.528L14.6505 10.5749L14.7971 10.6097C14.8777 10.6287 14.9992 10.6516 15.0673 10.6602C15.1355 10.6687 15.2795 10.6768 15.3877 10.6778ZM15.7242 8.20374C15.2296 8.20374 14.8248 8.20032 14.8248 8.19597C14.8248 8.19164 14.8459 8.13046 14.8717 8.05988C14.8974 7.98924 14.9428 7.88419 14.9723 7.82639L15.0262 7.72118L15.1443 7.60568L15.2626 7.49004L15.3788 7.4355C15.4426 7.40541 15.5271 7.37273 15.5664 7.36282C15.6057 7.35287 15.7183 7.33971 15.8166 7.3336L15.9954 7.32225L16.1326 7.33958L16.2697 7.35693L16.3694 7.40189L16.4692 7.44673L16.5239 7.5047C16.554 7.53659 16.5898 7.58353 16.6035 7.60899L16.6285 7.65535L16.645 7.75826L16.6616 7.86118L16.6426 8.03242L16.6237 8.20367L15.7242 8.20374ZM21.0705 10.6779L21.2672 10.6802L21.4905 10.6541C21.6133 10.6398 21.7768 10.6162 21.8538 10.6015C21.9468 10.583 22.0393 10.5615 22.1308 10.5368C22.2062 10.5158 22.2744 10.4933 22.2823 10.4866C22.2902 10.4798 22.3115 10.4001 22.3297 10.3094C22.3477 10.2188 22.3705 10.097 22.3802 10.0391C22.3899 9.98112 22.3949 9.93073 22.3913 9.92682C22.3877 9.92307 22.3746 9.92795 22.362 9.93773C22.3495 9.94753 22.2619 9.98375 22.1672 10.0183L21.9951 10.0811L21.75 10.1277L21.505 10.1744L21.2967 10.1675L21.0883 10.1604L20.9699 10.1201L20.8515 10.0797L20.7602 10.0011L20.6687 9.92249L20.6081 9.8139L20.5474 9.70541L20.5184 9.56012L20.4896 9.41493L20.4898 9.22644L20.49 9.03801L20.5251 8.8096L20.5602 8.5813L20.5973 8.45825C20.6177 8.39067 20.6408 8.31174 20.6487 8.28271C20.6565 8.25372 20.6893 8.17073 20.7215 8.09831C20.7537 8.02589 20.8112 7.91394 20.8492 7.84946L20.9183 7.73236L21.0033 7.64583L21.0884 7.55928L21.1784 7.50453L21.2683 7.44974L21.3839 7.41473C21.4474 7.39552 21.5597 7.37053 21.6334 7.3593L21.7675 7.3387L21.9639 7.34843L22.1606 7.35817L22.393 7.40387L22.6252 7.44952L22.7197 7.4841C22.7718 7.5032 22.8165 7.51877 22.8193 7.51877C22.822 7.51877 22.8345 7.45354 22.8471 7.37379C22.8594 7.29416 22.8816 7.16306 22.8962 7.08257C22.9109 7.00191 22.9194 6.9325 22.915 6.92831C22.9106 6.92404 22.8409 6.91322 22.7599 6.90413C22.6788 6.8951 22.4587 6.87898 22.2705 6.86827L21.9285 6.849L21.6871 6.8672L21.4459 6.88541L21.2671 6.92223L21.0885 6.95915L20.9733 7.00443C20.91 7.02931 20.8173 7.07426 20.7673 7.10417C20.7194 7.13286 20.6723 7.16272 20.6258 7.19382C20.598 7.21313 20.5137 7.28854 20.4383 7.36137L20.3015 7.49379L20.225 7.60381C20.1831 7.66434 20.1103 7.79037 20.0635 7.88412L19.9784 8.05453L19.9131 8.23889C19.8772 8.3403 19.827 8.50626 19.8017 8.60768L19.7557 8.79214L19.739 8.95901L19.7223 9.12589L19.7224 9.34541L19.7226 9.56499L19.7395 9.69263L19.7563 9.82042L19.8099 9.95186L19.8633 10.0832L19.9253 10.1781L19.987 10.2731L20.0853 10.3682L20.1836 10.4631L20.2876 10.5173L20.3917 10.5713L20.5283 10.6086C20.6033 10.629 20.712 10.6526 20.7694 10.661C20.827 10.6691 20.9623 10.6768 21.0705 10.6779ZM24.0102 10.6716L24.2513 10.6648L24.4032 10.6265L24.5552 10.5882L24.6535 10.5426C24.7075 10.5174 24.796 10.4679 24.8501 10.4324C24.9042 10.397 24.9878 10.3294 25.0361 10.2825C25.0842 10.2355 25.1557 10.1554 25.1949 10.1044C25.2341 10.0535 25.2684 10.0141 25.2713 10.0168C25.2744 10.0197 25.2653 10.101 25.2513 10.1973C25.2375 10.2938 25.2259 10.4221 25.2257 10.4825L25.2254 10.5922H25.8814L25.8914 10.3419L25.9014 10.0917L25.9482 9.76674C25.9739 9.588 26.0155 9.32326 26.0407 9.17839C26.0658 9.03345 26.1092 8.78851 26.1375 8.63391C26.1657 8.4794 26.2104 8.23831 26.2368 8.09825L26.2848 7.84363L26.2864 7.62361L26.2879 7.40366L26.2374 7.30203L26.1867 7.20035L26.1182 7.13565L26.0496 7.07083L25.9369 7.0148L25.8242 6.95857L25.6563 6.92184L25.4884 6.88507L25.2571 6.8679L25.026 6.85062L24.7283 6.86876C24.5644 6.87871 24.3339 6.89836 24.2159 6.91243L24.0015 6.93796L23.8553 6.93855L23.7092 6.93913L23.688 7.04022C23.6763 7.09567 23.6438 7.22765 23.6158 7.33345C23.5877 7.43924 23.5674 7.52824 23.5706 7.5313C23.5737 7.53456 23.6519 7.51697 23.7442 7.4926C23.8367 7.46815 24.0329 7.42801 24.1803 7.40329L24.4483 7.35838L24.6895 7.34869L24.9308 7.33881L25.0863 7.36555L25.2416 7.39241L25.3453 7.44267L25.4491 7.49304L25.5071 7.57806L25.5652 7.66316L25.5643 7.79727L25.5635 7.93144L25.5328 8.07861L25.5019 8.22578L24.8589 8.22809L24.2159 8.23033L24.0054 8.28711C23.8897 8.31831 23.7615 8.35968 23.7207 8.3791C23.6797 8.39853 23.6388 8.41449 23.6296 8.41449C23.6207 8.41449 23.5518 8.45189 23.4767 8.49791L23.3403 8.58124L23.2329 8.68674C23.1737 8.74463 23.0981 8.8316 23.065 8.87997C23.0318 8.92825 22.9778 9.02901 22.9452 9.10416L22.8858 9.24046L22.8584 9.39391L22.831 9.54716V9.86913L22.8571 10.0031L22.8831 10.137L22.9315 10.2245C22.9582 10.2725 23.007 10.343 23.0401 10.381L23.1003 10.4499L23.2071 10.5137L23.314 10.5776L23.4363 10.6116C23.5036 10.6302 23.606 10.6529 23.664 10.6619L23.7693 10.6782L24.0102 10.6716ZM24.2336 10.1803L24.0906 10.1878L23.9959 10.1641C23.9437 10.151 23.8648 10.122 23.8203 10.0995L23.7394 10.0586L23.6951 10.007C23.6708 9.97852 23.6338 9.92285 23.6126 9.88315L23.5744 9.81084L23.5669 9.64189L23.5593 9.4731L23.5896 9.37073C23.6063 9.31438 23.6453 9.2166 23.6765 9.15349L23.733 9.03865L23.8414 8.933L23.9497 8.82721L24.0647 8.77274L24.1797 8.71835L24.3227 8.68491L24.4657 8.65152H25.3592L25.3874 8.66302L25.4156 8.67447L25.3918 8.81233C25.3788 8.88811 25.3476 9.02527 25.3226 9.11694C25.2974 9.20879 25.2532 9.34358 25.2243 9.41685C25.1953 9.48985 25.1715 9.5545 25.1715 9.56044C25.1715 9.56638 25.1422 9.61963 25.1062 9.67877L25.0409 9.78654L24.9338 9.89091C24.8749 9.94812 24.8202 9.9951 24.8123 9.9951C24.8043 9.9951 24.7683 10.0149 24.732 10.039L24.6661 10.0829L24.5212 10.128L24.3763 10.173L24.2336 10.1803ZM30.0503 10.6778L30.22 10.6799L30.381 10.6542C30.4694 10.6402 30.582 10.6174 30.6311 10.6037C30.6802 10.59 30.7688 10.5546 30.8277 10.5249L30.935 10.4709L31.0272 10.3912L31.1195 10.3113L31.2166 10.1839C31.27 10.114 31.3184 10.0448 31.3241 10.0303L31.3345 10.004L31.3254 10.0918C31.3191 10.1506 31.3108 10.2092 31.3007 10.2675C31.2921 10.3158 31.2797 10.4086 31.2733 10.4738L31.2614 10.5923H31.9625V10.3552L32.0158 9.90733C32.0453 9.66093 32.0887 9.33304 32.1123 9.1785C32.1361 9.02393 32.1728 8.80269 32.1939 8.68678C32.2148 8.57086 32.2521 8.36139 32.2765 8.22133C32.3011 8.08134 32.3452 7.8363 32.3748 7.67691C32.4044 7.51749 32.4517 7.26462 32.48 7.11482C32.5082 6.96515 32.5522 6.73198 32.5776 6.59679C32.603 6.46155 32.6486 6.22435 32.6789 6.06985C32.7105 5.90862 32.7432 5.74763 32.7771 5.58681C32.8009 5.47575 32.8204 5.37895 32.8204 5.37172V5.35851H32.0553L32.0441 5.46828C32.0379 5.52875 32.0086 5.72815 31.979 5.91177C31.944 6.12851 31.9083 6.34509 31.8718 6.56161C31.8507 6.68648 31.8297 6.81139 31.8092 6.93636L31.7994 6.99489L31.7694 6.98232C31.7526 6.97531 31.6627 6.95074 31.5694 6.92772L31.3996 6.88582L31.1674 6.86806L30.935 6.8503L30.7383 6.86827L30.5418 6.88631L30.363 6.93073L30.1844 6.9751L30.0146 7.05649L29.8447 7.13789L29.7196 7.22887L29.5946 7.31984L29.4865 7.43373C29.4271 7.4964 29.3413 7.5999 29.2957 7.66396L29.2132 7.78015L29.1159 7.97881C29.0626 8.08809 28.9975 8.23289 28.9715 8.30043C28.9455 8.36813 28.8996 8.51793 28.8694 8.63353L28.8148 8.84367L28.7878 9.11673L28.7609 9.38945L28.7811 9.60902L28.8014 9.82861L28.8253 9.90761C28.8385 9.95116 28.8662 10.0287 28.887 10.0797L28.9245 10.1728L28.9935 10.2643L29.0622 10.3559L29.1409 10.4191L29.2193 10.4823L29.3266 10.5347C29.3857 10.5634 29.4844 10.6006 29.5465 10.6172C29.6083 10.6339 29.7088 10.6541 29.7699 10.6618C29.8307 10.6693 29.9569 10.6767 30.0503 10.6778ZM30.355 10.1795L30.2201 10.1864L30.1292 10.1705C30.079 10.1616 29.9989 10.1378 29.9509 10.1176L29.864 10.081L29.7906 10.022L29.7175 9.96294L29.663 9.86046L29.6087 9.75803L29.5837 9.64388L29.559 9.52972L29.5611 9.30136L29.5632 9.07307L29.5919 8.87097L29.6207 8.66913L29.6655 8.52864C29.6902 8.45135 29.7104 8.3784 29.7105 8.36659C29.7107 8.35471 29.735 8.29161 29.7645 8.2261C29.7992 8.15044 29.8359 8.07561 29.8745 8.00171C29.9052 7.94374 29.9628 7.85342 30.0024 7.80098C30.042 7.74854 30.1125 7.66948 30.1591 7.62527C30.2057 7.58122 30.2797 7.52333 30.3238 7.49673L30.4038 7.44839L30.5443 7.4006L30.6848 7.35266L30.9796 7.35254H31.2746L31.4443 7.39885C31.5377 7.42438 31.6369 7.45381 31.6647 7.46451L31.7152 7.48383L31.7053 7.532C31.6999 7.55847 31.6786 7.67503 31.6581 7.79091C31.6377 7.90688 31.5971 8.12822 31.5681 8.28271C31.5392 8.43724 31.4948 8.67046 31.4693 8.80083C31.4441 8.9313 31.4074 9.09726 31.3877 9.16966C31.3676 9.24411 31.3472 9.31837 31.3264 9.39272C31.3122 9.44287 31.2785 9.52983 31.2516 9.58586C31.2244 9.64183 31.1771 9.7233 31.1463 9.7668C31.1155 9.81026 31.0634 9.87056 31.0305 9.90059C30.9977 9.93079 30.9266 9.9843 30.8724 10.0196L30.7741 10.0838L30.632 10.1281L30.4901 10.1724L30.355 10.1795ZM4.0542 10.5923H4.48833L4.51952 10.4036C4.5366 10.2997 4.5701 10.1001 4.59386 9.96016L4.69212 9.38057C4.72241 9.20181 4.7679 8.93703 4.79311 8.79214C4.81827 8.64728 4.85839 8.42252 4.88204 8.29272C4.90586 8.1628 4.92978 8.05223 4.93529 8.04677L4.94536 8.03693H7.28035L7.29335 8.04967L7.30635 8.06239L7.28609 8.16376C7.275 8.21957 7.24204 8.39168 7.21299 8.54617C7.18381 8.70074 7.13489 8.96159 7.10407 9.12582C7.07174 9.29865 7.03888 9.47139 7.00544 9.64394C6.98189 9.76471 6.93415 10.0175 6.89942 10.2059C6.86473 10.3943 6.83638 10.5583 6.83649 10.5704L6.8367 10.5923H7.70864L7.72791 10.4826C7.73857 10.4222 7.75565 10.3136 7.76592 10.2411C7.77608 10.1687 7.80086 10.0145 7.82082 9.89865C7.84078 9.7827 7.8806 9.55344 7.9094 9.38924C7.93813 9.22501 7.98639 8.94446 8.01647 8.76578C8.04656 8.58704 8.09118 8.32623 8.11576 8.18623C8.14673 8.01031 8.17907 7.83475 8.21262 7.65932C8.24141 7.50946 8.28942 7.2567 8.31932 7.09723C8.34925 6.93791 8.39392 6.69681 8.41866 6.56157C8.44355 6.42639 8.48877 6.18138 8.51926 6.01715C8.54972 5.85291 8.58831 5.66125 8.60479 5.5912L8.63492 5.46378H7.75206L7.74007 5.54732C7.73348 5.59308 7.71219 5.72174 7.69271 5.83267C7.67318 5.94388 7.63779 6.14136 7.61399 6.27177C7.59017 6.40225 7.54671 6.65109 7.51728 6.82509C7.48848 6.99544 7.46076 7.16589 7.4341 7.33655L7.4043 7.53183L6.75632 7.54474L6.10828 7.55762L5.56557 7.545C5.26705 7.53799 5.02115 7.53088 5.01911 7.52933C5.01702 7.52756 5.02719 7.45932 5.04158 7.37755C5.06064 7.27217 5.08086 7.16701 5.10238 7.06212C5.12978 6.92752 5.15638 6.79292 5.18224 6.65807C5.20723 6.52769 5.23548 6.36571 5.24517 6.29807C5.25469 6.23045 5.27486 6.11787 5.2898 6.0477C5.30478 5.97771 5.33324 5.83022 5.35305 5.72002C5.37279 5.60973 5.39389 5.50696 5.39989 5.49162L5.41069 5.46373H4.53494L4.50701 5.61748C4.49154 5.70204 4.47094 5.82257 4.46125 5.88528C4.45156 5.9481 4.41891 6.14961 4.38873 6.33316C4.35865 6.51672 4.31403 6.7894 4.28978 6.93907L4.19173 7.545C4.15722 7.75597 4.12089 7.96681 4.08266 8.17725C4.05088 8.35005 4.0185 8.52275 3.98543 8.69539C3.96215 8.81604 3.91788 9.04533 3.887 9.20471C3.85458 9.37175 3.82119 9.5386 3.78678 9.70531C3.76253 9.82112 3.73577 9.95551 3.72738 10.0038C3.71881 10.0522 3.69114 10.1914 3.66583 10.3134C3.64051 10.4353 3.6198 10.5479 3.6198 10.5637V10.5922L4.0542 10.5923ZM8.86092 10.5923H9.24529L9.25614 10.5645C9.26213 10.5492 9.26702 10.5091 9.26702 10.4755C9.26702 10.4418 9.2912 10.2666 9.3207 10.0861C9.38811 9.67502 9.45722 9.26422 9.52806 8.85359C9.55835 8.68062 9.59035 8.50792 9.62384 8.33545C9.65233 8.19058 9.69605 7.96532 9.721 7.8349C9.74582 7.70448 9.7949 7.45642 9.8299 7.28355C9.86486 7.1107 9.89786 6.96236 9.90322 6.9539L9.91295 6.93849L9.5242 6.94315L9.13552 6.94791L9.10309 7.17638C9.08532 7.30191 9.04636 7.55089 9.01661 7.72951C8.98685 7.90826 8.94184 8.181 8.91648 8.33545C8.88591 8.52023 8.85328 8.70461 8.81853 8.88869C8.78995 9.03844 8.74617 9.26759 8.7212 9.39807C8.69626 9.52859 8.65146 9.75769 8.62171 9.90738C8.59189 10.0572 8.55196 10.2547 8.53292 10.3465C8.51381 10.4384 8.49332 10.5312 8.48737 10.5528L8.47655 10.5923H8.86092ZM17.8512 10.5923H18.2327L18.2442 10.4337C18.2505 10.3464 18.2721 10.1706 18.2921 10.0428C18.3123 9.91521 18.3535 9.66057 18.3836 9.4771C18.4218 9.25026 18.4633 9.02388 18.5082 8.79816C18.5466 8.60832 18.59 8.41956 18.6046 8.37885C18.6193 8.33801 18.6312 8.29385 18.6312 8.28064C18.6312 8.26736 18.6599 8.19522 18.695 8.12036C18.73 8.04547 18.7954 7.9308 18.8402 7.86545L18.9217 7.74675L19.0306 7.64752L19.1396 7.54832L19.2742 7.48521L19.4087 7.42212L19.6141 7.42319L19.8197 7.42432L19.9207 7.4539C19.9762 7.47029 20.0265 7.48366 20.0325 7.48366C20.0382 7.48366 20.043 7.46494 20.043 7.44214C20.043 7.41939 20.0632 7.30368 20.0877 7.18504C20.1123 7.06651 20.1323 6.96449 20.1323 6.95845C20.1323 6.9523 20.0741 6.92981 20.0028 6.90851C19.9316 6.88727 19.8331 6.86501 19.7839 6.85901L19.6944 6.84814L19.5784 6.86833C19.5145 6.87941 19.4195 6.90392 19.3674 6.92285C19.3151 6.94164 19.2288 6.98447 19.1756 7.01779C19.1226 7.05135 19.0399 7.11649 18.992 7.16255C18.944 7.20876 18.8634 7.30191 18.8128 7.36951C18.7734 7.42206 18.7343 7.47473 18.6953 7.52754L18.6697 7.56265L18.6852 7.49245C18.6937 7.45369 18.7175 7.32722 18.738 7.21143C18.7585 7.0955 18.7797 6.98676 18.7849 6.96989L18.7945 6.93913H18.113V6.98146C18.113 7.00479 18.0928 7.145 18.0683 7.29314C18.0437 7.44144 18.0032 7.68906 17.9782 7.84367C17.9533 7.99818 17.909 8.26698 17.8798 8.44081C17.8487 8.62544 17.8159 8.80986 17.7813 8.99396C17.714 9.34552 17.6452 9.69679 17.575 10.0478C17.5448 10.1976 17.5089 10.3744 17.495 10.4408C17.481 10.507 17.4697 10.5682 17.4697 10.5768V10.5922L17.8512 10.5923ZM26.9084 10.5923H27.2985V10.3576L27.3435 10.0666C27.3683 9.90669 27.4091 9.65309 27.4343 9.50345C27.4594 9.3537 27.4907 9.16403 27.5038 9.08183C27.5169 8.99974 27.5517 8.82202 27.5813 8.68674C27.6108 8.55148 27.6474 8.40523 27.663 8.36177C27.6785 8.31837 27.6913 8.27272 27.6915 8.26047C27.6916 8.2482 27.7248 8.16928 27.7652 8.08514L27.8389 7.93202L27.9361 7.80519L28.0333 7.67836L28.1395 7.59979C28.198 7.5565 28.292 7.49924 28.3484 7.47238L28.4512 7.42351L28.6745 7.42502L28.8978 7.42656L28.9859 7.45435L29.0739 7.48212L29.0886 7.47301L29.1033 7.46402L29.1042 7.40799C29.1046 7.37712 29.1236 7.26248 29.1466 7.15308L29.1884 6.95422L29.1415 6.93619C29.0963 6.91969 29.051 6.90451 29.005 6.89049L28.9158 6.86276L28.7549 6.86325L28.5941 6.86362L28.4631 6.90901L28.332 6.95427L28.2336 7.01266L28.1351 7.07104L28.0071 7.20276L27.8791 7.33446L27.8104 7.43668C27.7726 7.49281 27.7394 7.53627 27.7364 7.53317C27.7335 7.53017 27.7542 7.41307 27.7821 7.27303C27.8101 7.13292 27.8335 7.00052 27.8339 6.97879L27.8346 6.9393H27.1735V6.95049C27.1735 6.95662 27.157 7.06934 27.1368 7.20082C27.1166 7.33232 27.0761 7.58611 27.047 7.76485C27.0118 7.97859 26.9762 8.19223 26.9401 8.40587C26.9087 8.59061 26.8759 8.77496 26.8414 8.95918C26.8166 9.08954 26.7726 9.31871 26.7435 9.46851C26.7145 9.61824 26.6667 9.85933 26.6374 10.0042L26.5512 10.4301L26.5183 10.5925L26.9084 10.5923ZM9.6171 6.30656L9.72548 6.30693L9.81176 6.27809L9.89803 6.24919L9.97438 6.17305L10.0507 6.09705L10.0908 5.99557L10.1311 5.89417L10.1325 5.7449L10.134 5.5957L10.0982 5.53731L10.0625 5.47897L10.0003 5.44124L9.93801 5.40331H9.66935L9.57788 5.44356L9.48648 5.4838L9.43338 5.53972L9.3803 5.5957L9.33855 5.69229L9.29686 5.78883L9.28901 5.93933L9.28118 6.08977L9.31993 6.16458L9.35872 6.23929L9.4337 6.27274L9.50852 6.30608L9.6171 6.30656Z" fill="#656565"/>
</svg>
